<?xml version="1.0" encoding="UTF-8"?>
<!DOCTYPE svg PUBLIC "-//W3C//DTD SVG 1.1//EN" "http://www.w3.org/Graphics/SVG/1.1/DTD/svg11.dtd">
<!-- Creator: CorelDRAW X6 -->
<svg xmlns="http://www.w3.org/2000/svg" xml:space="preserve" width="27.4374mm" height="51.3975mm" version="1.1" style="shape-rendering:geometricPrecision; text-rendering:geometricPrecision; image-rendering:optimizeQuality; fill-rule:evenodd; clip-rule:evenodd"
viewBox="0 0 440 825"
 xmlns:xlink="http://www.w3.org/1999/xlink">
 <defs>
  <style type="text/css">
   <![CDATA[
    .str0 {stroke:#373435;stroke-width:11.3193}
    .fil0 {fill:#373435;fill-rule:nonzero}
   ]]>
  </style>
 </defs>
 <g id="fertige_x0020_Planeten">
  <metadata id="CorelCorpID_0Corel-Layer"/>
  <path class="fil0 str0" d="M240 254l0 -88 88 88 25 -25 -99 -99 99 -99 -25 -25 -88 88 0 -87 -35 0 0 245c-88,9 -157,83 -157,173 0,96 78,174 174,174 96,0 174,-78 174,-174 0,-90 -69,-165 -157,-173zm-17 313l0 0c-77,0 -139,-62 -139,-139 0,-77 62,-139 139,-139 77,0 139,62 139,139 0,77 -62,139 -139,139z"/>  
 </g>
</svg>
