<?xml version="1.0" encoding="UTF-8"?>
<!DOCTYPE svg PUBLIC "-//W3C//DTD SVG 1.1//EN" "http://www.w3.org/Graphics/SVG/1.1/DTD/svg11.dtd">
<!-- Creator: CorelDRAW X6 -->
<svg xmlns="http://www.w3.org/2000/svg" xml:space="preserve" width="31.1344mm" height="54.7796mm" version="1.1" style="shape-rendering:geometricPrecision; text-rendering:geometricPrecision; image-rendering:optimizeQuality; fill-rule:evenodd; clip-rule:evenodd"
viewBox="0 0 1487 2617"
 xmlns:xlink="http://www.w3.org/1999/xlink">
 <defs>
  <style type="text/css">
   <![CDATA[
    .str0 {stroke:#373435;stroke-width:33.7062}
    .fil0 {fill:#373435;fill-rule:nonzero}
   ]]>
  </style>
 </defs>
 <g id="fertige_x0020_Planeten">
  <metadata id="CorelCorpID_0Corel-Layer"/>
  <path class="fil0 str0" d="M1470 1367l-415 0 0 0 0 -623 -104 0 0 623 0 0 -560 0 0 0c211,-127 352,-359 352,-623 0,-401 -325,-727 -727,-727l0 104c344,0 623,279 623,623 0,344 -279,623 -623,623l0 0 0 104 934 0 0 519 104 0 0 -519 415 0 0 -104z"/>
  <g id="_620982656">
   <path class="fil0" d="M18 2555l29 -3c1,16 4,26 11,32 6,6 15,9 26,9 8,0 15,-2 21,-5 6,-3 10,-7 12,-13 2,-5 3,-14 3,-26l0 -141 33 0 0 140c0,17 -2,30 -7,40 -5,9 -13,17 -24,22 -11,5 -23,7 -38,7 -22,0 -38,-5 -50,-16 -11,-10 -17,-26 -17,-46z"/>
   <path class="fil0" d="M368 2408l33 0 0 118c0,21 -3,37 -8,49 -6,12 -16,22 -30,30 -15,8 -34,11 -58,11 -23,0 -42,-3 -57,-10 -15,-7 -25,-16 -31,-29 -6,-13 -9,-30 -9,-51l0 -118 33 0 0 118c0,18 2,31 6,39 4,8 11,15 20,20 10,5 22,7 36,7 24,0 41,-5 51,-14 10,-9 15,-26 15,-52l0 -118z"/>
   <path class="fil0" d="M455 2613l0 -205 93 0c16,0 29,1 37,2 12,2 22,5 30,10 8,5 15,11 20,20 5,8 7,18 7,28 0,17 -7,32 -20,44 -13,12 -37,18 -72,18l-63 0 0 83 -33 0zm33 -108l0 0 64 0c21,0 36,-3 45,-10 9,-7 13,-16 13,-28 0,-9 -3,-16 -8,-22 -5,-6 -12,-10 -21,-12 -5,-1 -16,-2 -30,-2l-63 0 0 73z"/>
   <polygon class="fil0" points="689,2613 689,2408 722,2408 722,2613 "/>
   <polygon class="fil0" points="842,2613 842,2432 761,2432 761,2408 956,2408 956,2432 875,2432 875,2613 "/>
   <polygon class="fil0" points="990,2613 990,2408 1168,2408 1168,2432 1023,2432 1023,2495 1159,2495 1159,2519 1023,2519 1023,2589 1174,2589 1174,2613 "/>
   <path class="fil0" d="M1219 2613l0 -205 109 0c22,0 39,2 50,6 11,4 21,10 27,20 7,9 10,20 10,31 0,15 -6,27 -17,37 -11,10 -29,16 -52,19 9,3 15,7 20,10 10,7 19,16 27,27l43 56 -41 0 -33 -43c-10,-12 -17,-22 -24,-28 -6,-7 -12,-11 -17,-14 -5,-3 -10,-4 -15,-5 -4,-1 -10,-1 -18,-1l-38 0 0 91 -33 0zm33 -115l0 0 70 0c15,0 27,-1 35,-4 8,-3 15,-7 19,-12 4,-6 7,-12 7,-18 0,-10 -4,-18 -13,-24 -8,-6 -22,-9 -40,-9l-78 0 0 68z"/>
  </g>
 </g>
</svg>
