<?xml version="1.0" encoding="UTF-8"?>
<!DOCTYPE svg PUBLIC "-//W3C//DTD SVG 1.1//EN" "http://www.w3.org/Graphics/SVG/1.1/DTD/svg11.dtd">
<!-- Creator: CorelDRAW X6 -->
<svg xmlns="http://www.w3.org/2000/svg" xml:space="preserve" width="31.1344mm" height="54.7796mm" version="1.1" style="shape-rendering:geometricPrecision; text-rendering:geometricPrecision; image-rendering:optimizeQuality; fill-rule:evenodd; clip-rule:evenodd"
viewBox="0 0 1487 2617"
 xmlns:xlink="http://www.w3.org/1999/xlink">
 <defs>
  <style type="text/css">
   <![CDATA[
    .str0 {stroke:#000000;stroke-width:33.7062}
    .fil0 {fill:#000000;fill-rule:nonzero}
   ]]>
  </style>
 </defs>
 <g id="fertige_x0020_Planeten">
  <metadata id="CorelCorpID_0Corel-Layer"/>
  <path class="fil0 str0" d="M1470 1367l-415 0 0 0 0 -623 -104 0 0 623 0 0 -560 0 0 0c211,-127 352,-359 352,-623 0,-401 -325,-727 -727,-727l0 104c344,0 623,279 623,623 0,344 -279,623 -623,623l0 0 0 104 934 0 0 519 104 0 0 -519 415 0 0 -104z"/>  
 </g>
</svg>
