<?xml version="1.0" encoding="UTF-8"?>
<!DOCTYPE svg PUBLIC "-//W3C//DTD SVG 1.1//EN" "http://www.w3.org/Graphics/SVG/1.1/DTD/svg11.dtd">
<!-- Creator: CorelDRAW X6 -->
<svg xmlns="http://www.w3.org/2000/svg" xml:space="preserve" width="20.49mm" height="46.1739mm" version="1.1" style="shape-rendering:geometricPrecision; text-rendering:geometricPrecision; image-rendering:optimizeQuality; fill-rule:evenodd; clip-rule:evenodd"
viewBox="0 0 320 720"
 xmlns:xlink="http://www.w3.org/1999/xlink">
 <defs>
  <style type="text/css">
   <![CDATA[
    .str0 {stroke:#000000;stroke-width:11.0068}
    .fil0 {fill:#000000;fill-rule:nonzero}
   ]]>
  </style>
 </defs>
 <g id="fertige_x0020_Planeten">
  <metadata id="CorelCorpID_0Corel-Layer"/>
  <path class="fil0 str0" d="M209 336c24,0 47,-5 68,-14 -77,-7 -136,-72 -136,-151 0,-79 60,-143 136,-151 -21,-9 -44,-14 -68,-14 -91,0 -165,74 -165,165 0,68 41,126 99,151l0 81 -85 0 0 34 85 0 0 68 34 0 0 -68 85 0 0 -34 -85 0 0 -71c10,2 21,3 32,3z"/>  
 </g>
</svg>
