<?xml version="1.0" encoding="UTF-8"?>
<!DOCTYPE svg PUBLIC "-//W3C//DTD SVG 1.1//EN" "http://www.w3.org/Graphics/SVG/1.1/DTD/svg11.dtd">
<!-- Creator: CorelDRAW X6 -->
<svg xmlns="http://www.w3.org/2000/svg" xml:space="preserve" width="20.49mm" height="46.1739mm" version="1.1" style="shape-rendering:geometricPrecision; text-rendering:geometricPrecision; image-rendering:optimizeQuality; fill-rule:evenodd; clip-rule:evenodd"
viewBox="0 0 320 720"
 xmlns:xlink="http://www.w3.org/1999/xlink">
 <defs>
  <style type="text/css">
   <![CDATA[
    .str0 {stroke:#373435;stroke-width:11.0068}
    .fil0 {fill:#373435;fill-rule:nonzero}
   ]]>
  </style>
 </defs>
 <g id="fertige_x0020_Planeten">
  <metadata id="CorelCorpID_0Corel-Layer"/>
  <path class="fil0 str0" d="M209 336c24,0 47,-5 68,-14 -77,-7 -136,-72 -136,-151 0,-79 60,-143 136,-151 -21,-9 -44,-14 -68,-14 -91,0 -165,74 -165,165 0,68 41,126 99,151l0 81 -85 0 0 34 85 0 0 68 34 0 0 -68 85 0 0 -34 -85 0 0 -71c10,2 21,3 32,3z"/>
  <g id="_620416752">
   <polygon class="fil0" points="0,720 0,653 11,653 11,712 50,712 50,720 "/>
   <polygon class="fil0" points="65,720 65,653 75,653 75,720 "/>
   <polygon class="fil0" points="94,720 94,653 104,653 104,712 144,712 144,720 "/>
   <polygon class="fil0" points="158,720 158,653 169,653 169,720 "/>
   <polygon class="fil0" points="208,720 208,661 182,661 182,653 245,653 245,661 219,661 219,720 "/>
   <polygon class="fil0" points="257,720 257,653 267,653 267,681 309,681 309,653 320,653 320,720 309,720 309,689 267,689 267,720 "/>
  </g>
 </g>
</svg>
