<?xml version="1.0" encoding="UTF-8"?>
<!DOCTYPE svg PUBLIC "-//W3C//DTD SVG 1.1//EN" "http://www.w3.org/Graphics/SVG/1.1/DTD/svg11.dtd">
<!-- Creator: CorelDRAW X6 -->
<svg xmlns="http://www.w3.org/2000/svg" xml:space="preserve" width="35.1365mm" height="58.777mm" version="1.1" style="shape-rendering:geometricPrecision; text-rendering:geometricPrecision; image-rendering:optimizeQuality; fill-rule:evenodd; clip-rule:evenodd"
viewBox="0 0 4002 6695"
 xmlns:xlink="http://www.w3.org/1999/xlink">
 <defs>
  <style type="text/css">
   <![CDATA[
    .str0 {stroke:#373435;stroke-width:80.3745}
    .fil0 {fill:#373435;fill-rule:nonzero}
   ]]>
  </style>
 </defs>
 <g id="fertige_x0020_Planeten">
  <metadata id="CorelCorpID_0Corel-Layer"/>
  <path class="fil0 str0" d="M3715 40l-1238 0 0 248 1063 0 -631 631c-304,-264 -701,-423 -1135,-423 -958,0 -1733,776 -1733,1733 0,957 776,1733 1733,1733 957,0 1733,-776 1733,-1733 0,-434 -160,-831 -423,-1135l631 -631 0 1063 248 0 0 -1238 0 -248 -248 0zm-1941 3674l0 0c-821,0 -1486,-665 -1486,-1485 0,-820 665,-1485 1486,-1485 821,0 1486,665 1486,1485 0,820 -665,1485 -1486,1485z"/>
  <g id="_623956096">
   <path class="fil0" d="M638 6687l0 -489 117 0 139 346c13,32 22,56 28,72 7,-18 17,-44 31,-78l140 -340 104 0 0 489 -75 0 0 -409 -171 409 -70 0 -170 -416 0 416 -75 0z"/>
   <path class="fil0" d="M1259 6687l225 -489 84 0 240 489 -88 0 -68 -148 -245 0 -64 148 -82 0zm169 -201l0 0 199 0 -61 -135c-19,-41 -33,-75 -42,-101 -7,31 -18,62 -32,93l-64 143z"/>
   <path class="fil0" d="M1872 6687l0 -489 260 0c52,0 92,4 119,13 27,9 49,24 65,47 16,22 24,47 24,74 0,35 -13,64 -40,88 -27,24 -69,39 -125,45 21,8 36,16 47,24 23,17 44,39 64,65l102 133 -98 0 -78 -102c-23,-29 -41,-52 -56,-67 -15,-16 -28,-26 -39,-33 -12,-6 -23,-11 -35,-13 -9,-2 -23,-2 -43,-2l-90 0 0 217 -78 0zm78 -273l0 0 167 0c36,0 63,-3 83,-9 20,-6 35,-16 46,-29 10,-13 16,-28 16,-44 0,-23 -10,-42 -30,-57 -20,-15 -52,-22 -95,-22l-186 0 0 162z"/>
   <path class="fil0" d="M2436 6530l73 -5c3,24 12,45 24,60 13,16 32,28 59,38 27,10 57,15 90,15 30,0 56,-4 78,-11 23,-7 40,-17 51,-30 11,-13 17,-27 17,-42 0,-15 -5,-29 -16,-40 -11,-11 -28,-21 -53,-29 -16,-5 -51,-13 -104,-24 -54,-11 -92,-21 -113,-31 -28,-12 -49,-27 -63,-46 -14,-18 -21,-38 -21,-61 0,-25 8,-48 25,-69 17,-21 41,-38 74,-49 32,-11 68,-17 108,-17 43,0 82,6 115,18 33,12 59,29 77,52 18,23 27,48 29,77l-74 5c-4,-31 -18,-54 -41,-70 -23,-16 -57,-24 -102,-24 -47,0 -81,7 -103,22 -21,14 -32,32 -32,52 0,18 8,32 23,43 15,11 54,23 117,35 63,12 106,22 130,31 34,13 59,30 76,50 16,20 24,43 24,70 0,26 -9,51 -27,74 -18,23 -44,41 -77,54 -34,13 -71,19 -113,19 -53,0 -98,-6 -133,-19 -36,-13 -64,-32 -84,-58 -20,-26 -31,-55 -32,-88z"/>
  </g>
 </g>
</svg>
