<?xml version="1.0" encoding="UTF-8"?>
<!DOCTYPE svg PUBLIC "-//W3C//DTD SVG 1.1//EN" "http://www.w3.org/Graphics/SVG/1.1/DTD/svg11.dtd">
<!-- Creator: CorelDRAW X6 -->
<svg xmlns="http://www.w3.org/2000/svg" xml:space="preserve" width="31.1162mm" height="54.7796mm" version="1.1" style="shape-rendering:geometricPrecision; text-rendering:geometricPrecision; image-rendering:optimizeQuality; fill-rule:evenodd; clip-rule:evenodd"
viewBox="0 0 673 1185"
 xmlns:xlink="http://www.w3.org/1999/xlink">
 <defs>
  <style type="text/css">
   <![CDATA[
    .str0 {stroke:#373435;stroke-width:15.2694}
    .fil0 {fill:#373435;fill-rule:nonzero}
   ]]>
  </style>
 </defs>
 <g id="fertige_x0020_Planeten">
  <metadata id="CorelCorpID_0Corel-Layer"/>
  <path class="fil0 str0" d="M336 243c-60,0 -116,16 -164,44l0 -138 118 0 0 -47 -118 0 0 -94 -47 0 0 94 -118 0 0 47 118 0 0 236c52,-58 127,-95 211,-95 156,0 282,126 282,282 0,156 -126,282 -282,282l0 47c182,0 329,-147 329,-329 0,-182 -147,-329 -329,-329z"/>
  <g id="_623849600">
   <path class="fil0" d="M36 1154l14 -1c1,5 2,8 5,11 2,3 6,5 11,7 5,2 11,3 17,3 6,0 11,-1 15,-2 4,-1 8,-3 10,-6 2,-2 3,-5 3,-8 0,-3 -1,-5 -3,-8 -2,-2 -5,-4 -10,-5 -3,-1 -10,-2 -20,-5 -10,-2 -17,-4 -22,-6 -5,-2 -9,-5 -12,-9 -3,-3 -4,-7 -4,-12 0,-5 2,-9 5,-13 3,-4 8,-7 14,-9 6,-2 13,-3 20,-3 8,0 16,1 22,3 6,2 11,5 15,10 3,4 5,9 5,15l-14 1c-1,-6 -3,-10 -8,-13 -4,-3 -11,-4 -19,-4 -9,0 -15,1 -20,4 -4,3 -6,6 -6,10 0,3 1,6 4,8 3,2 10,4 22,7 12,2 20,4 25,6 6,2 11,6 14,9 3,4 5,8 5,13 0,5 -2,10 -5,14 -3,4 -8,8 -15,10 -6,2 -14,4 -21,4 -10,0 -19,-1 -25,-4 -7,-2 -12,-6 -16,-11 -4,-5 -6,-10 -6,-17z"/>
   <path class="fil0" d="M133 1184l43 -93 16 0 46 93 -17 0 -13 -28 -47 0 -12 28 -16 0zm32 -38l0 0 38 0 -12 -26c-4,-8 -6,-14 -8,-19 -1,6 -3,12 -6,18l-12 27z"/>
   <polygon class="fil0" points="266,1184 266,1102 229,1102 229,1091 317,1091 317,1102 281,1102 281,1184 "/>
   <path class="fil0" d="M406 1091l15 0 0 54c0,9 -1,17 -4,22 -3,5 -7,10 -14,13 -7,3 -15,5 -26,5 -10,0 -19,-1 -26,-4 -7,-3 -11,-7 -14,-13 -3,-6 -4,-13 -4,-23l0 -54 15 0 0 54c0,8 1,14 3,18 2,4 5,7 9,9 4,2 10,3 16,3 11,0 19,-2 23,-6 5,-4 7,-12 7,-24l0 -54z"/>
   <path class="fil0" d="M445 1184l0 -93 49 0c10,0 17,1 23,3 5,2 9,5 12,9 3,4 5,9 5,14 0,7 -3,12 -8,17 -5,5 -13,7 -24,9 4,2 7,3 9,5 4,3 8,7 12,12l19 25 -19 0 -15 -19c-4,-6 -8,-10 -11,-13 -3,-3 -5,-5 -7,-6 -2,-1 -4,-2 -7,-2 -2,0 -4,0 -8,0l-17 0 0 41 -15 0zm15 -52l0 0 32 0c7,0 12,-1 16,-2 4,-1 7,-3 9,-6 2,-3 3,-5 3,-8 0,-4 -2,-8 -6,-11 -4,-3 -10,-4 -18,-4l-35 0 0 31z"/>
   <polygon class="fil0" points="557,1184 557,1091 573,1091 631,1164 631,1091 645,1091 645,1184 630,1184 572,1111 572,1184 "/>
  </g>
 </g>
</svg>
