<?xml version="1.0" encoding="UTF-8"?>
<!DOCTYPE svg PUBLIC "-//W3C//DTD SVG 1.1//EN" "http://www.w3.org/Graphics/SVG/1.1/DTD/svg11.dtd">
<!-- Creator: CorelDRAW X6 -->
<svg xmlns="http://www.w3.org/2000/svg" xml:space="preserve" width="34.3862mm" height="33.0285mm" version="1.1" style="shape-rendering:geometricPrecision; text-rendering:geometricPrecision; image-rendering:optimizeQuality; fill-rule:evenodd; clip-rule:evenodd"
viewBox="0 0 241 232"
 xmlns:xlink="http://www.w3.org/1999/xlink">
 <defs>
  <style type="text/css">
   <![CDATA[
    .fil0 {fill:#373435}
   ]]>
  </style>
 </defs>
 <g id="Layer_x0020_1">
  <metadata id="CorelCorpID_0Corel-Layer"/>
  <path class="fil0" d="M120 60l0 0c0,0 0,0 0,0zm-65 0l0 0c0,0 0,0 0,0zm155 7l0 2c0,0 0,1 0,1 0,1 0,2 0,2 0,2 0,3 0,5 0,3 0,7 -1,10 -2,7 -5,13 -10,18 -5,6 -11,11 -17,15 -1,1 -2,1 -3,2 -1,-20 -1,-40 -1,-61 0,-2 0,-3 0,-4 0,-1 0,-3 0,-4 0,-3 -1,-6 -1,-9 -1,-6 -3,-12 -7,-18 -3,-6 -8,-11 -15,-14 -3,-2 -6,-3 -9,-3 -2,0 -3,-1 -5,-1 -1,0 -2,0 -2,0 0,0 -1,0 -1,0l-1 0c-6,0 -13,1 -19,4 -6,3 -11,7 -15,12 -3,-5 -8,-9 -13,-11 -3,-2 -6,-3 -9,-3 -2,0 -3,-1 -5,-1 -1,0 -2,0 -2,0 -1,0 -1,0 -2,0 -6,0 -13,1 -19,4 -3,1 -6,3 -9,5 -3,2 -5,5 -7,8 0,-1 -1,-1 -1,-2 -3,-5 -8,-10 -14,-15 -6,-4 -13,-7 -20,-10l0 35c6,-5 14,-5 20,0 2,2 4,5 6,9 0,0 0,0 0,0 -1,3 -2,6 -3,9 0,2 -1,3 -1,5 0,1 0,2 -1,3l0 1c0,1 0,1 0,2l9 -1c0,1 0,2 0,3 0,3 0,5 0,8 0,5 -1,10 -1,15 -1,10 -3,20 -6,30l30 0c-3,-10 -4,-20 -6,-30 -1,-5 -1,-10 -1,-15 0,-3 0,-5 0,-8 0,-1 0,-2 0,-4 0,0 0,0 0,0l9 -1c0,0 0,0 0,0 0,0 0,0 0,-1 0,0 0,-1 -1,-1 0,-1 -1,-2 -1,-3 -1,-2 -1,-4 -1,-6 0,-4 0,-8 1,-12 1,-4 3,-6 7,-8 2,-1 3,-2 5,-2 1,0 2,0 3,-1 1,0 1,0 1,0 1,0 1,0 2,0l1 0c1,0 1,0 2,0 1,0 2,0 3,0 2,0 4,1 6,2 3,2 6,4 8,8 1,2 2,4 3,6 0,1 -1,1 -1,2 -1,3 -2,6 -3,9 0,2 -1,3 -1,5 0,1 0,2 -1,3l0 1c0,1 0,1 0,2l7 -1c0,9 -1,18 -2,28 0,5 -1,9 -2,14 -1,5 -1,9 -2,14l30 0c-1,-5 -2,-9 -2,-14 -1,-5 -1,-9 -2,-14 -1,-9 -2,-19 -2,-28l0 1c0,-1 0,-1 0,-2l8 -1c0,0 0,0 0,0l0 -1c0,0 0,-1 -1,-1 0,-1 -1,-2 -1,-3 -1,-2 -1,-4 -1,-6 0,-4 0,-8 2,-12 1,-3 4,-6 7,-8 2,-1 3,-2 5,-2 1,0 2,0 3,-1 1,0 1,0 1,0 0,0 1,0 2,0l1 0c1,0 1,0 2,0 1,0 2,0 3,0 2,0 4,1 5,2 3,2 6,4 8,8 2,3 3,8 4,12 0,2 1,5 1,7 0,1 0,2 0,3 0,1 0,2 0,3l0 0 0 0c0,24 -1,48 -2,72 -7,3 -14,7 -21,10 -8,4 -16,8 -24,14 -4,3 -8,7 -11,11 -3,5 -5,10 -6,16 0,3 -1,6 -1,8 0,3 0,6 1,8 1,6 4,11 8,16 4,5 9,9 15,11 6,2 11,3 17,4l2 0 2 0c2,0 3,0 4,0 3,0 6,-1 9,-2 6,-2 11,-6 15,-11 15,-19 11,-40 11,-56 0,-8 0,-15 -1,-23 4,-2 7,-4 11,-6 8,-4 15,-9 22,-15 7,-6 14,-14 19,-23 3,-4 4,-9 6,-14 1,-2 1,-5 2,-7 0,-1 1,-2 1,-4l0 -2 0 -2 -32 0zm-51 95l0 13c0,2 0,4 0,6 0,2 0,4 -1,5 -1,7 -3,13 -7,17 -2,2 -3,3 -5,4 -1,0 -2,1 -3,1 -1,0 -1,0 -2,0l-1 0 -1 0c-3,0 -6,-1 -8,-2 -2,-1 -4,-2 -5,-4 -3,-3 -5,-9 -5,-14 0,-3 1,-5 2,-8 1,-3 3,-5 5,-8 5,-5 11,-10 18,-14 4,-3 9,-5 13,-7 0,4 0,8 0,12z"/>
 </g>
</svg>
