<?xml version="1.0" encoding="UTF-8"?>
<!DOCTYPE svg PUBLIC "-//W3C//DTD SVG 1.1//EN" "http://www.w3.org/Graphics/SVG/1.1/DTD/svg11.dtd">
<!-- Creator: CorelDRAW X6 -->
<svg xmlns="http://www.w3.org/2000/svg" xml:space="preserve" width="23.287mm" height="28.4222mm" version="1.1" style="shape-rendering:geometricPrecision; text-rendering:geometricPrecision; image-rendering:optimizeQuality; fill-rule:evenodd; clip-rule:evenodd"
viewBox="0 0 129 157"
 xmlns:xlink="http://www.w3.org/1999/xlink">
 <defs>
  <style type="text/css">
   <![CDATA[
    .fil0 {fill:#373435}
   ]]>
  </style>
 </defs>
 <g id="Layer_x0020_1">
  <metadata id="CorelCorpID_0Corel-Layer"/>
  <path class="fil0" d="M128 105c-1,-6 -3,-11 -7,-16 -3,-5 -7,-9 -12,-12 -9,-6 -21,-8 -32,-6 -2,0 -3,1 -5,1 7,-9 14,-19 20,-28 9,-12 18,-24 27,-35l-11 -9c0,0 -1,1 -1,1 -1,0 -1,1 -2,1 -1,1 -2,2 -4,3 -2,2 -5,3 -8,4 -5,2 -11,4 -16,4 -5,0 -11,-1 -15,-4 -5,-3 -9,-6 -13,-11l-15 16c6,5 13,9 20,12 7,3 16,4 24,3 4,0 7,-1 10,-2 -2,3 -4,6 -6,9 -9,12 -17,24 -26,36 -9,12 -18,24 -27,35 -10,11 -19,22 -31,33l21 15c6,-14 14,-27 21,-39 1,-1 1,-2 2,-3 0,2 0,3 0,5 1,5 3,11 6,15 3,5 7,9 11,12 5,3 10,6 15,7 5,1 11,2 17,1 6,-1 11,-3 16,-6 5,-3 9,-7 12,-12l0 0c3,-5 6,-10 7,-16 1,-6 1,-11 0,-17zm-21 23c-2,3 -4,5 -7,7 -3,2 -6,3 -10,4 -7,2 -14,0 -21,-3 -3,-2 -6,-4 -8,-8 -2,-3 -4,-7 -5,-10 -1,-4 -1,-8 0,-11 1,-4 2,-7 4,-10 2,-3 5,-6 8,-8 3,-2 7,-3 11,-4 8,-1 15,1 21,5 6,4 10,11 11,18 1,7 -1,14 -5,20z"/>
 </g>
</svg>
