<?xml version="1.0" encoding="UTF-8"?>
<!DOCTYPE svg PUBLIC "-//W3C//DTD SVG 1.1//EN" "http://www.w3.org/Graphics/SVG/1.1/DTD/svg11.dtd">
<!-- Creator: CorelDRAW X6 -->
<svg xmlns="http://www.w3.org/2000/svg" xml:space="preserve" width="33.1412mm" height="29.2713mm" version="1.1" style="shape-rendering:geometricPrecision; text-rendering:geometricPrecision; image-rendering:optimizeQuality; fill-rule:evenodd; clip-rule:evenodd"
viewBox="0 0 193 170"
 xmlns:xlink="http://www.w3.org/1999/xlink">
 <defs>
  <style type="text/css">
   <![CDATA[
    .fil0 {fill:#373435}
   ]]>
  </style>
 </defs>
 <g id="Layer_x0020_1">
  <metadata id="CorelCorpID_0Corel-Layer"/>
  <path class="fil0" d="M193 47c0,-5 -1,-11 -3,-16 -2,-5 -4,-11 -8,-15 -2,-2 -5,-4 -7,-6 -3,-2 -6,-3 -9,-4 -2,0 -3,-1 -5,-1l-2 0 -1 0c0,0 -1,0 -1,0 -3,0 -6,0 -10,1 -6,2 -12,6 -16,11 -1,1 -1,1 -1,2 -2,-3 -5,-6 -9,-8 -2,-1 -5,-3 -8,-3 -1,0 -3,-1 -4,-1 -1,0 -1,0 -2,0l-2 0c-5,0 -11,1 -16,3 -3,1 -5,3 -7,5 -1,1 -2,3 -3,4 -2,-3 -5,-6 -8,-8 -5,-3 -10,-4 -15,-4 -5,0 -11,1 -16,4 -3,1 -5,3 -7,5 -2,2 -3,3 -4,5 0,0 0,0 0,0 -2,-4 -6,-9 -10,-13 -5,-4 -10,-6 -16,-8l0 27c2,-2 5,-3 8,-3 3,0 5,2 8,4 2,2 3,4 4,7 0,0 0,1 0,1 -1,2 -2,5 -2,7 0,1 -1,3 -1,4l0 2 0 1c0,0 0,1 0,1l7 -1 0 0c0,1 0,2 0,3 0,2 0,4 0,6 0,4 -1,8 -1,13 -1,8 -2,17 -4,25l23 0c-2,-8 -3,-17 -4,-25 0,-4 -1,-8 -1,-13 0,-2 0,-4 0,-6 0,-1 0,-2 0,-3l0 -1 7 -1c0,0 0,0 0,0l0 -1c0,0 0,-1 -1,-1 0,-1 -1,-2 -1,-3 0,-2 -1,-4 -1,-5 0,-4 0,-7 1,-10 1,-3 3,-6 5,-7 1,-1 3,-1 4,-2 1,0 2,0 2,0 0,0 1,0 1,0 0,0 1,0 1,0 3,0 7,1 9,2 3,2 5,4 6,7 1,1 1,2 1,3 -1,1 -1,3 -1,4 -1,2 -1,5 -2,7l-1 4 0 2c0,1 0,1 0,2l7 -1c0,8 -1,16 -2,23 0,4 -1,8 -1,12 -1,4 -1,8 -2,12l23 0c-1,-4 -1,-8 -2,-12 0,-4 -1,-8 -1,-12 -1,-8 -1,-16 -2,-24l0 1c0,0 0,-1 0,-1l7 -1c0,0 0,-1 0,-1l0 -1c0,-1 0,-2 -1,-3 0,-2 -1,-4 -1,-5 0,-3 0,-7 1,-10 1,-3 2,-5 4,-7 2,-2 5,-3 8,-3 3,0 7,0 9,2 3,1 5,4 6,7 1,1 1,3 2,5 0,0 0,0 0,0 -1,3 -2,6 -2,8 0,1 -1,3 -1,4l0 2c0,1 0,1 0,2l5 0 0 0c0,11 1,22 3,33 2,11 6,22 11,32 3,6 6,12 10,18 -1,1 -1,1 -2,2 -4,3 -7,6 -11,8 -2,1 -4,2 -6,3 -1,0 -2,1 -3,1l-2 0c0,0 0,0 -1,0 0,0 -1,0 -1,0l13 23c1,0 1,-1 1,-1l1 -1 1 -2c1,-1 2,-2 3,-3 2,-2 4,-4 5,-6 3,-4 6,-8 9,-12 3,4 6,7 10,11 2,2 4,4 6,6 1,1 2,2 3,3l2 1c1,1 1,1 2,2l12 -20c0,0 -1,0 -1,-1 0,0 -1,-1 -2,-1 -1,-1 -2,-1 -3,-2 -2,-1 -4,-3 -6,-4 -4,-3 -8,-6 -11,-10 0,0 -1,-1 -1,-1 2,-3 4,-7 6,-11 10,-18 16,-37 18,-58 0,-3 0,-5 1,-8l0 -4c0,-2 0,-3 0,-4zm-14 15c-1,18 -6,37 -16,52 -1,2 -3,5 -5,7 -3,-4 -6,-8 -8,-12 -5,-9 -9,-18 -11,-28 -3,-10 -4,-20 -4,-30 0,0 0,0 0,0l5 0c0,0 0,-1 0,-1l0 -1c0,-1 0,-2 0,-3 0,-2 0,-4 1,-6 1,-4 2,-7 4,-10 2,-3 4,-5 7,-6 1,-1 3,-1 5,-1 0,0 0,0 1,0l0 0 0 0 0 0c0,0 0,0 0,0l0 0c1,0 1,0 2,0 1,0 2,0 2,0 3,0 6,2 8,4 2,2 5,6 6,9 1,4 2,8 3,12 0,1 0,2 0,3l0 3c0,2 0,5 0,7z"/>
 </g>
</svg>
