<?xml version="1.0" encoding="UTF-8"?>
<!DOCTYPE svg PUBLIC "-//W3C//DTD SVG 1.1//EN" "http://www.w3.org/Graphics/SVG/1.1/DTD/svg11.dtd">
<!-- Creator: CorelDRAW X6 -->
<svg xmlns="http://www.w3.org/2000/svg" xml:space="preserve" width="21.2066mm" height="21.2063mm" version="1.1" style="shape-rendering:geometricPrecision; text-rendering:geometricPrecision; image-rendering:optimizeQuality; fill-rule:evenodd; clip-rule:evenodd"
viewBox="0 0 105 105"
 xmlns:xlink="http://www.w3.org/1999/xlink">
 <defs>
  <style type="text/css">
   <![CDATA[
    .fil0 {fill:#373435}
   ]]>
  </style>
 </defs>
 <g id="Layer_x0020_1">
  <metadata id="CorelCorpID_0Corel-Layer"/>
  <path class="fil0" d="M52 0c-29,0 -52,24 -52,52 0,29 24,52 52,52 29,0 52,-24 52,-52 0,-29 -24,-52 -52,-52zm-9 13c1,5 1,11 1,16 0,6 1,11 1,17 -6,0 -11,0 -17,-1 -5,0 -11,-1 -16,-1 3,-15 15,-27 31,-31zm1 62c0,5 -1,11 -1,16 -15,-3 -27,-15 -31,-31 5,-1 11,-1 16,-1 6,0 11,-1 17,-1 0,6 0,11 -1,17zm14 -46c0,-5 1,-11 1,-16 15,3 27,15 31,31 -5,1 -11,1 -16,1 -6,0 -11,1 -17,1 0,-6 0,-11 1,-17zm1 62c-1,-5 -1,-11 -1,-16 0,-6 -1,-11 -1,-17 6,0 11,0 17,1 5,0 11,1 16,1 -3,15 -15,27 -31,31z"/>
 </g>
</svg>
