<?xml version="1.0" encoding="UTF-8"?>
<!DOCTYPE svg PUBLIC "-//W3C//DTD SVG 1.1//EN" "http://www.w3.org/Graphics/SVG/1.1/DTD/svg11.dtd">
<!-- Creator: CorelDRAW X6 -->
<svg xmlns="http://www.w3.org/2000/svg" xml:space="preserve" width="31.9322mm" height="28.7929mm" version="1.1" style="shape-rendering:geometricPrecision; text-rendering:geometricPrecision; image-rendering:optimizeQuality; fill-rule:evenodd; clip-rule:evenodd"
viewBox="0 0 180 162"
 xmlns:xlink="http://www.w3.org/1999/xlink">
 <defs>
  <style type="text/css">
   <![CDATA[
    .fil0 {fill:#21c600}
   ]]>
  </style>
 </defs>
 <g id="Layer_x0020_1">
  <metadata id="CorelCorpID_0Corel-Layer"/>
  <path class="fil0" d="M180 48l0 0c0,0 0,0 0,-1 0,-1 0,-3 0,-4 0,-3 -1,-5 -2,-8 -1,-5 -3,-10 -7,-15 -3,-5 -8,-9 -14,-11 -3,-1 -6,-2 -9,-2 -1,0 -1,0 -2,0l-1 0 -1 0c-2,0 -3,0 -4,1 -6,1 -12,4 -16,9 -1,1 -2,2 -3,3 -2,-4 -5,-8 -9,-10 -5,-3 -10,-4 -15,-4 -5,0 -11,1 -16,3 -4,2 -7,5 -10,8 -2,-2 -4,-5 -7,-6 -2,-1 -5,-2 -7,-3 -1,0 -2,-1 -4,-1 -1,0 -1,0 -2,0l-1 0 -1 0c-4,0 -10,1 -15,3 -2,1 -5,3 -6,5 -1,1 -3,3 -4,4 -2,-4 -5,-8 -10,-12 -4,-4 -10,-6 -15,-8l0 26c2,-2 5,-3 7,-3 2,0 5,2 7,4 2,2 3,4 4,6 0,0 0,1 0,1 -1,2 -1,5 -2,7 0,1 -1,2 -1,4l0 2 0 1c0,0 0,1 0,1l7 -1 0 0c0,1 0,2 0,3 0,2 0,4 0,6 0,4 -1,8 -1,12 -1,8 -2,16 -4,23l22 0c-2,-8 -3,-16 -4,-23 0,-4 -1,-8 -1,-12 0,-2 0,-4 0,-6 0,-1 0,-2 0,-3l0 -1 7 -1c0,0 0,0 0,0l0 -1c0,0 0,-1 -1,-1 0,-1 -1,-2 -1,-2 0,-2 -1,-3 -1,-5 0,-3 0,-7 1,-9 2,-6 6,-9 13,-9 1,0 3,0 4,0 1,0 3,1 4,2 2,1 4,4 6,6 0,1 1,2 1,3 0,1 -1,3 -1,4 -1,2 -1,5 -1,7 0,1 0,2 0,4 0,1 0,2 0,4l5 0c0,7 -1,14 -2,22 0,4 -1,7 -1,11 -1,4 -1,7 -2,11l22 0c-1,-4 -1,-7 -2,-11 0,-4 -1,-7 -1,-11 -1,-7 -1,-15 -2,-22l0 1c0,0 0,-1 0,-1l5 0c0,0 0,-1 0,-2 0,-1 0,-2 0,-2 0,-2 0,-3 0,-5 0,-3 1,-6 2,-9 1,-3 2,-4 4,-6 2,-1 4,-2 7,-2 6,0 10,2 13,7 1,2 2,5 3,7 -1,1 -1,3 -1,4 0,1 -1,3 -1,4l-1 2 0 1c0,0 0,1 0,1l5 0c0,10 0,19 0,29 0,10 0,19 0,29 0,3 0,6 0,9 -2,1 -3,1 -5,2 -4,2 -8,3 -13,4 -2,1 -4,1 -6,1l-3 1c-1,0 -2,0 -3,0l5 25c2,0 3,-1 4,-1l4 -1c2,-1 5,-2 7,-3 3,-1 5,-2 8,-3 -1,8 -2,16 -4,24l26 0c-2,-10 -4,-19 -5,-29 0,-1 0,-2 0,-3 6,-3 11,-7 16,-11 8,-6 16,-14 22,-23 6,-9 10,-19 12,-29 1,-5 2,-10 2,-16l0 -2 0 -1zm-14 2c0,4 -1,9 -2,13 -2,8 -6,16 -11,23 -5,7 -12,12 -19,17 -2,1 -4,3 -6,4 0,-1 0,-2 0,-2 0,-10 0,-19 0,-29 0,-9 0,-19 0,-28 0,0 0,0 0,0l5 0c0,0 0,0 0,0l0 -1c0,0 0,-1 0,-1 0,-1 0,-2 0,-3 0,-2 0,-4 0,-6 0,-2 1,-4 1,-6 1,-2 1,-4 2,-5 2,-3 5,-5 8,-6 1,0 2,0 3,0 0,0 0,0 1,0l1 0c0,0 1,0 1,0 2,0 4,0 5,1 3,1 6,4 8,7 2,3 3,7 4,11 0,2 1,4 1,6 0,2 0,4 0,6z"/>
 </g>
</svg>
