<?xml version="1.0" encoding="UTF-8"?>
<!DOCTYPE svg PUBLIC "-//W3C//DTD SVG 1.1//EN" "http://www.w3.org/Graphics/SVG/1.1/DTD/svg11.dtd">
<!-- Creator: CorelDRAW X6 -->
<svg xmlns="http://www.w3.org/2000/svg" xml:space="preserve" width="25.3373mm" height="24.0758mm" version="1.1" style="shape-rendering:geometricPrecision; text-rendering:geometricPrecision; image-rendering:optimizeQuality; fill-rule:evenodd; clip-rule:evenodd"
viewBox="0 0 154 147"
 xmlns:xlink="http://www.w3.org/1999/xlink">
 <defs>
  <style type="text/css">
   <![CDATA[
    .fil0 {fill:#3362ff}
   ]]>
  </style>
 </defs>
 <g id="Layer_x0020_1">
  <metadata id="CorelCorpID_0Corel-Layer"/>
  <path class="fil0" d="M31 101c9,1 17,-2 23,-8 3,-3 6,-6 8,-10 1,-2 2,-4 2,-6 0,-1 1,-2 1,-3l0 -2 0 -2 0 -1 0 -2c0,-1 0,-2 0,-3 0,-2 -1,-4 -1,-6 -1,-4 -3,-8 -5,-11 -3,-3 -6,-6 -9,-8 -2,-1 -4,-2 -6,-3 -1,0 -2,-1 -3,-1l-2 0 -1 0 0 0 0 0 0 0 0 0 0 0 -1 0 -2 0c-1,0 -2,0 -3,0 -2,0 -4,0 -6,1 -1,0 -2,0 -3,1 1,-1 2,-2 3,-3 10,-10 23,-16 36,-18 14,-2 27,0 40,5 13,5 25,13 36,22l12 -15c-13,-9 -27,-17 -42,-22 -15,-5 -32,-6 -48,-3 -16,3 -31,12 -42,23 -6,6 -10,13 -13,21 -2,6 -3,12 -3,18 0,0 0,0 0,1l0 0 0 1 0 2c0,1 0,2 0,3 0,2 1,4 1,7 1,4 4,8 6,12 6,7 14,11 23,11zm-14 -33l0 -1 0 0c1,-9 9,-17 19,-17 0,0 0,0 0,0l0 0 0 0 0 0 0 0 1 0c1,0 1,0 2,0 1,0 2,1 4,1 2,1 4,3 6,4 2,2 3,4 4,7 0,1 1,3 1,4 0,1 0,1 0,2l0 1 0 1 0 1 0 1c0,1 0,1 -1,2 0,1 -1,2 -2,4 -1,2 -3,4 -5,6 -4,3 -9,4 -14,3 -5,-1 -9,-4 -12,-7 -1,-2 -2,-4 -3,-6 0,-1 0,-2 -1,-3 0,-1 0,-1 0,-2l0 -1zm137 9c0,-2 -1,-4 -1,-7 -1,-4 -4,-8 -6,-12 -3,-3 -6,-6 -10,-8 -2,-1 -4,-2 -6,-2 -1,0 -2,0 -3,-1l-2 0 -2 0 -1 0 -2 0c-1,0 -2,0 -3,0 -2,0 -4,1 -6,1 -4,1 -8,4 -11,6 -3,3 -6,6 -8,10 -1,2 -2,4 -2,6 0,1 -1,2 -1,3l0 2 0 2 0 1 0 2c0,1 0,2 0,3 0,2 1,4 1,6 1,4 3,8 5,11 3,3 6,6 9,8 2,1 4,2 6,3 1,0 2,1 3,1l2 0 1 0 0 0 0 0 0 0 0 0 0 0 1 0 2 0c1,0 2,0 3,0 2,0 4,0 6,-1 1,0 2,0 3,-1 -1,1 -2,2 -3,3 -10,10 -23,16 -36,18 -14,2 -27,0 -40,-5 -13,-5 -25,-13 -36,-22l-12 15c13,9 27,17 42,22 15,5 32,6 48,3 16,-3 31,-12 42,-23 6,-6 10,-13 13,-21 2,-6 3,-12 3,-18 0,0 0,0 0,-1l0 0 0 -1 0 -2c0,-1 0,-2 0,-3zm-17 4l0 1 0 0c-1,9 -9,17 -19,17 0,0 0,0 0,0l0 0 0 0 0 0 0 0 0 0 -1 0c-1,0 -1,0 -2,0 -1,0 -2,-1 -4,-1 -2,-1 -4,-3 -6,-4 -2,-2 -3,-4 -4,-7 0,-1 -1,-3 -1,-4 0,-1 0,-1 0,-2l0 -1 0 -1 0 -1 0 -1c0,-1 0,-1 1,-2 0,-1 1,-2 2,-4 1,-2 3,-4 5,-6 2,-2 4,-3 7,-3 1,0 2,0 4,0 1,0 1,0 2,0l2 0c0,0 0,0 0,0l0 0 0 0 0 0 0 0 0 0 1 0c1,0 1,0 2,1 1,0 2,1 3,2 2,1 4,3 5,5 1,2 2,4 3,6 0,1 0,2 1,3 0,1 0,1 0,2l0 1z"/>
 </g>
</svg>
