<?xml version="1.0" encoding="UTF-8"?>
<!DOCTYPE svg PUBLIC "-//W3C//DTD SVG 1.1//EN" "http://www.w3.org/Graphics/SVG/1.1/DTD/svg11.dtd">
<!-- Creator: CorelDRAW X6 -->
<svg xmlns="http://www.w3.org/2000/svg" xml:space="preserve" width="33.3214mm" height="17.1813mm" version="1.1" style="shape-rendering:geometricPrecision; text-rendering:geometricPrecision; image-rendering:optimizeQuality; fill-rule:evenodd; clip-rule:evenodd"
viewBox="0 0 226 117"
 xmlns:xlink="http://www.w3.org/1999/xlink">
 <defs>
  <style type="text/css">
   <![CDATA[
    .fil0 {fill:#373435}
   ]]>
  </style>
 </defs>
 <g id="Layer_x0020_1">
  <metadata id="CorelCorpID_0Corel-Layer"/>
  <path class="fil0" d="M33 48c0,0 0,0 -1,-1 0,0 -1,-1 -1,-1 -1,-1 -1,-2 -1,-3 -1,-2 -1,-4 -1,-6 0,-4 1,-8 3,-11 4,-7 11,-11 18,-11 7,0 13,5 16,12 2,4 3,9 3,14 -1,2 -2,5 -4,7l2 0c0,0 0,0 0,0l15 0 17 0c0,0 0,-1 -1,-1 0,0 0,0 -1,-1 0,0 -1,-1 -1,-1 -1,-1 -1,-2 -1,-3 -1,-2 -1,-4 -1,-6 0,-4 1,-8 3,-11 4,-7 11,-11 18,-11 7,0 13,5 16,12 2,4 3,9 3,14 -1,2 -2,5 -4,7l2 0c0,0 0,0 0,0l15 0 17 0c0,0 0,-1 -1,-1 0,0 0,0 -1,-1 0,0 -1,-1 -1,-1 -1,-1 -1,-2 -1,-3 -1,-2 -1,-4 -1,-6 0,-4 1,-8 3,-11 4,-7 11,-11 18,-11 7,0 13,5 16,12 3,7 4,15 2,22l29 0c-2,-12 -7,-24 -15,-33 -4,-5 -9,-9 -14,-12 -5,-3 -12,-5 -18,-4 -6,0 -13,2 -18,5 -5,3 -9,7 -13,12 0,0 0,0 -1,1 0,-1 -1,-1 -1,-2 -4,-5 -9,-9 -14,-12 -3,-1 -6,-3 -9,-3 -3,-1 -6,-1 -9,-1 -7,0 -13,2 -18,5 -5,3 -9,7 -13,12 0,0 0,0 -1,1 0,-1 -1,-1 -1,-2 -4,-5 -9,-9 -14,-12 -5,-3 -12,-5 -18,-4 -6,0 -13,2 -18,5 -5,3 -9,7 -13,12 -7,9 -13,20 -18,32l34 0c0,0 0,-1 -1,-1zm164 23c-5,-3 -12,-5 -18,-4 -6,0 -13,2 -18,5 -5,3 -9,7 -13,12 0,0 0,0 -1,1 0,-1 -1,-1 -1,-2 -4,-5 -9,-9 -14,-12 -3,-1 -6,-3 -9,-3 -3,-1 -6,-1 -9,-1 -7,0 -13,2 -18,5 -5,3 -9,7 -13,12 0,0 0,0 -1,1 0,-1 -1,-1 -1,-2 -4,-5 -9,-9 -14,-12 -5,-3 -12,-5 -18,-4 -6,0 -13,2 -18,5 -5,3 -9,7 -13,12 -7,9 -13,20 -18,32l34 0c0,0 0,-1 -1,-1 0,0 0,0 -1,-1 0,0 -1,-1 -1,-1 -1,-1 -1,-2 -1,-3 -1,-2 -1,-4 -1,-6 0,-4 1,-8 3,-11 4,-7 11,-11 18,-11 7,0 13,5 16,12 2,4 3,9 3,14 -1,2 -2,5 -4,7l2 0c0,0 0,0 0,0l15 0 17 0c0,0 0,-1 -1,-1 0,0 0,0 -1,-1 0,0 -1,-1 -1,-1 -1,-1 -1,-2 -1,-3 -1,-2 -1,-4 -1,-6 0,-4 1,-8 3,-11 4,-7 11,-11 18,-11 7,0 13,5 16,12 2,4 3,9 3,14 -1,2 -2,5 -4,7l2 0c0,0 0,0 0,0l15 0 17 0c0,0 0,-1 -1,-1 0,0 0,0 -1,-1 0,0 -1,-1 -1,-1 -1,-1 -1,-2 -1,-3 -1,-2 -1,-4 -1,-6 0,-4 1,-8 3,-11 4,-7 11,-11 18,-11 7,0 13,5 16,12 3,7 4,15 2,22l29 0c-2,-12 -7,-24 -15,-33 -4,-5 -9,-9 -14,-12z"/>
 </g>
</svg>
