<?xml version="1.0" encoding="UTF-8"?>
<!DOCTYPE svg PUBLIC "-//W3C//DTD SVG 1.1//EN" "http://www.w3.org/Graphics/SVG/1.1/DTD/svg11.dtd">
<!-- Creator: CorelDRAW X6 -->
<svg xmlns="http://www.w3.org/2000/svg" xml:space="preserve" width="23.6251mm" height="27.7654mm" version="1.1" style="shape-rendering:geometricPrecision; text-rendering:geometricPrecision; image-rendering:optimizeQuality; fill-rule:evenodd; clip-rule:evenodd"
viewBox="0 0 315 370"
 xmlns:xlink="http://www.w3.org/1999/xlink">
 <defs>
  <style type="text/css">
   <![CDATA[
    .fil0 {fill:#373435}
   ]]>
  </style>
 </defs>
 <g id="Layer_x0020_1">
  <metadata id="CorelCorpID_0Corel-Layer"/>
  <path class="fil0" d="M314 247c-2,-12 -6,-25 -13,-36 -7,-11 -16,-20 -26,-28 -10,-7 -21,-12 -33,-15 -23,-6 -46,-6 -68,-3 -2,0 -3,1 -5,1 1,-2 2,-3 3,-5 10,-17 22,-33 35,-48 13,-15 26,-30 41,-44 9,-9 19,-18 29,-26 2,-2 4,-3 6,-5 2,-1 3,-3 5,-4 2,-2 3,-3 5,-5l0 0 -24 -27c0,0 -1,1 -1,1l0 0 0 0c-1,1 -2,2 -4,3 -1,1 -3,2 -4,3 -3,2 -6,4 -9,6 -6,4 -12,7 -19,10 -13,5 -26,8 -39,8 -13,0 -25,-3 -37,-9 -12,-6 -22,-14 -32,-24l-31 32c13,12 28,23 45,31 17,8 37,11 56,10 2,0 4,0 6,0 -6,7 -12,14 -18,21 -13,16 -25,33 -37,51 -6,10 -12,20 -17,31 -6,2 -12,5 -19,7 -20,9 -39,21 -55,37 -16,16 -30,35 -40,56 -10,21 -15,44 -17,67l52 0c-2,-18 -1,-36 4,-53 5,-17 14,-33 26,-46 9,-11 21,-20 33,-28 -5,17 -7,35 -6,53 1,12 4,24 9,35 5,11 12,21 19,30 8,9 18,17 29,23 11,6 24,10 37,11 26,3 52,-6 72,-21 20,-16 34,-40 38,-65 2,-12 2,-25 0,-37zm-44 29c-3,15 -11,29 -22,38 -12,10 -27,15 -42,14 -7,0 -15,-2 -22,-5 -7,-3 -13,-8 -19,-14 -12,-12 -20,-27 -23,-43 -3,-17 0,-35 6,-53 1,-5 3,-9 5,-14 9,-3 18,-5 26,-7 18,-3 37,-2 53,5 16,7 28,19 34,32 6,14 7,30 4,46z"/>
 </g>
</svg>
