<?xml version="1.0" encoding="UTF-8"?>
<!DOCTYPE svg PUBLIC "-//W3C//DTD SVG 1.1//EN" "http://www.w3.org/Graphics/SVG/1.1/DTD/svg11.dtd">
<!-- Creator: CorelDRAW X6 -->
<svg xmlns="http://www.w3.org/2000/svg" xml:space="preserve" width="34.6256mm" height="15.2042mm" version="1.1" style="shape-rendering:geometricPrecision; text-rendering:geometricPrecision; image-rendering:optimizeQuality; fill-rule:evenodd; clip-rule:evenodd"
viewBox="0 0 481 211"
 xmlns:xlink="http://www.w3.org/1999/xlink">
 <defs>
  <style type="text/css">
   <![CDATA[
    .fil0 {fill:#373435}
   ]]>
  </style>
 </defs>
 <g id="Layer_x0020_1">
  <metadata id="CorelCorpID_0Corel-Layer"/>
  <path class="fil0" d="M417 159c-8,12 -21,19 -35,20 -14,1 -29,-6 -38,-17 -4,-6 -7,-13 -6,-20 0,-1 0,-3 0,-4 1,-2 2,-5 2,-7 1,-1 1,-3 2,-4 1,-1 1,-1 2,-2 1,-1 1,-2 2,-4l-34 1 -30 0c0,0 0,0 0,1l-5 0c1,1 2,2 2,3 1,2 1,4 2,5 1,2 2,4 3,5 0,8 -3,16 -7,23 -4,6 -9,11 -15,14 -3,2 -6,3 -10,4 -2,0 -3,1 -5,1l-2 0 -4 0c-13,1 -29,-6 -37,-17 -4,-6 -7,-13 -6,-20 0,-1 0,-3 0,-4 1,-2 2,-5 2,-7 1,-1 1,-3 2,-4 1,-1 1,-1 2,-2 1,-1 1,-2 2,-4l-34 1 -30 0c0,0 0,0 0,1l-5 0c1,1 2,2 2,3 1,2 1,4 2,5 1,2 2,4 3,5 0,8 -3,16 -7,23 -4,6 -9,11 -15,14 -3,2 -6,3 -10,4 -2,0 -3,1 -5,1l-2 0 -4 0c-13,1 -29,-6 -37,-17 -4,-6 -7,-13 -6,-20 0,-4 1,-7 2,-11 1,-2 2,-3 3,-5 1,-1 1,-1 2,-2 1,-1 1,-2 2,-4l-69 2c1,1 2,2 2,3 1,2 1,4 2,5 2,3 3,6 5,9 3,6 6,11 10,16 7,10 14,19 23,27 8,8 18,15 28,20 5,2 11,4 16,6 3,1 6,1 9,1l4 0 2 0 1 0 1 0 0 0 1 0 4 0 5 0c3,0 6,-1 9,-1 6,-1 11,-3 17,-5 11,-4 21,-11 30,-19 3,-2 5,-5 7,-7 2,2 3,3 5,5 16,16 38,27 62,27l4 0 5 0c3,0 6,-1 9,-1 6,-1 11,-3 17,-5 11,-4 21,-11 30,-19 3,-2 5,-5 7,-7 2,2 3,3 5,5 8,8 18,15 28,20 11,5 22,7 34,8 23,1 47,-9 65,-25 18,-16 30,-39 35,-65l-60 0c5,12 3,26 -5,38zm-412 -149c2,3 3,6 5,9 3,6 6,11 10,16 7,10 14,19 23,27 8,8 18,15 28,20 5,2 11,4 16,6 3,1 6,1 9,1l4 0 2 0 1 0 1 0 0 0 1 0 4 0 5 0c3,0 6,-1 9,-1 6,-1 11,-3 17,-5 11,-4 21,-11 30,-19 3,-2 5,-5 7,-7 2,2 3,3 5,5 16,16 38,27 62,27l4 0 5 0c3,0 6,-1 9,-1 6,-1 11,-3 17,-5 11,-4 21,-11 30,-19 3,-2 5,-5 7,-7 2,2 3,3 5,5 8,8 18,15 28,20 11,5 22,7 34,8 23,1 47,-9 65,-25 18,-16 30,-39 35,-65l-60 0c5,12 3,26 -5,38 -8,12 -21,19 -35,20 -14,1 -29,-6 -38,-17 -4,-6 -7,-13 -6,-20 0,-1 0,-3 0,-4 1,-2 2,-5 2,-7 1,-1 1,-3 2,-4 1,-1 1,-1 2,-2 1,-1 1,-2 2,-4l-34 1 -30 0c0,0 0,0 0,1l-5 0c1,1 2,2 2,3 1,2 1,4 2,5 1,2 2,4 3,5 0,8 -3,16 -7,23 -4,6 -9,11 -15,14 -3,2 -6,3 -10,4 -2,0 -3,1 -5,1l-2 0 -4 0c-13,1 -29,-6 -37,-17 -4,-6 -7,-13 -6,-20 0,-1 0,-3 0,-4 1,-2 2,-5 2,-7 1,-1 1,-3 2,-4 1,-1 1,-1 2,-2 1,-1 1,-2 2,-4l-34 1 -30 0c0,0 0,0 0,1l-5 0c1,1 2,2 2,3 1,2 1,4 2,5 1,2 2,4 3,5 0,8 -3,16 -7,23 -4,6 -9,11 -15,14 -3,2 -6,3 -10,4 -2,0 -3,1 -5,1l-2 0 -4 0c-13,1 -29,-6 -37,-17 -4,-6 -7,-13 -6,-20 0,-4 1,-7 2,-11 1,-2 2,-3 3,-5 1,-1 1,-1 2,-2 1,-1 1,-2 2,-4l-69 2c1,1 2,2 2,3 1,2 1,4 2,5z"/>
 </g>
</svg>
