<?xml version="1.0" encoding="UTF-8"?>
<!DOCTYPE svg PUBLIC "-//W3C//DTD SVG 1.1//EN" "http://www.w3.org/Graphics/SVG/1.1/DTD/svg11.dtd">
<!-- Creator: CorelDRAW X6 -->
<svg xmlns="http://www.w3.org/2000/svg" xml:space="preserve" width="19.5463mm" height="27.9304mm" version="1.1" style="shape-rendering:geometricPrecision; text-rendering:geometricPrecision; image-rendering:optimizeQuality; fill-rule:evenodd; clip-rule:evenodd"
viewBox="0 0 147 209"
 xmlns:xlink="http://www.w3.org/1999/xlink">
 <defs>
  <style type="text/css">
   <![CDATA[
    .fil0 {fill:#21c600}
   ]]>
  </style>
 </defs>
 <g id="Layer_x0020_1">
  <metadata id="CorelCorpID_0Corel-Layer"/>
  <path class="fil0" d="M122 87c-3,-3 -7,-6 -11,-9 8,-5 15,-11 20,-19 13,-17 18,-40 13,-60 -5,19 -14,36 -27,47 -13,12 -28,18 -44,18 -16,0 -32,-6 -44,-18 -13,-12 -22,-28 -27,-47 -5,19 0,42 13,60 5,7 12,14 21,19 -4,3 -8,5 -11,9 -7,6 -12,14 -16,22 -4,8 -6,18 -6,27 0,10 1,19 5,28 3,9 8,17 15,24 7,7 15,12 23,16 4,2 9,3 14,4 2,0 5,1 7,1 1,0 2,0 4,0l2 0 1 0 0 0c10,0 19,-2 28,-6 9,-4 17,-9 23,-16 7,-7 12,-15 15,-24 3,-9 5,-18 5,-27 -1,-19 -9,-37 -22,-49zm-1 49c-1,13 -6,25 -15,33 -9,8 -21,13 -33,13l-1 0 -1 0c-1,0 -1,0 -2,0 -1,0 -3,0 -4,-1 -3,-1 -6,-1 -9,-2 -6,-2 -11,-5 -15,-10 -9,-8 -15,-20 -15,-33 0,-7 1,-13 3,-19 2,-6 6,-12 10,-16 4,-5 10,-9 16,-11 2,-1 4,-2 6,-2 0,0 0,0 0,0 4,-1 8,-2 13,-2 4,0 9,1 13,2 0,0 0,0 0,0 2,1 4,1 6,2 6,3 11,6 16,11 4,5 8,10 10,16 2,6 3,13 3,19z"/>
 </g>
</svg>
