<?xml version="1.0" encoding="UTF-8"?>
<!DOCTYPE svg PUBLIC "-//W3C//DTD SVG 1.1//EN" "http://www.w3.org/Graphics/SVG/1.1/DTD/svg11.dtd">
<!-- Creator: CorelDRAW X6 -->
<svg xmlns="http://www.w3.org/2000/svg" xml:space="preserve" width="22.4911mm" height="27.0557mm" version="1.1" style="shape-rendering:geometricPrecision; text-rendering:geometricPrecision; image-rendering:optimizeQuality; fill-rule:evenodd; clip-rule:evenodd"
viewBox="0 0 149 179"
 xmlns:xlink="http://www.w3.org/1999/xlink">
 <defs>
  <style type="text/css">
   <![CDATA[
    .fil0 {fill:#373435}
   ]]>
  </style>
 </defs>
 <g id="Layer_x0020_1">
  <metadata id="CorelCorpID_0Corel-Layer"/>
  <path class="fil0" d="M149 179c-1,-10 -4,-19 -9,-26 -5,-8 -11,-14 -18,-19 -2,-2 -5,-3 -7,-4 -2,-6 -3,-12 -3,-18 0,-4 0,-8 0,-11 0,-4 0,-8 0,-11 0,-8 1,-15 2,-23 1,-6 2,-13 3,-19 2,-1 3,-2 5,-3 7,-5 13,-11 18,-18 3,-4 5,-8 6,-12 1,-2 2,-4 2,-7 0,-1 1,-2 1,-3 0,-1 0,-1 0,-2l0 -1 -23 0 0 1c0,0 0,1 0,1 0,1 0,1 0,2 0,1 0,3 0,4 0,3 -1,6 -2,8 -3,5 -7,10 -12,14 -5,4 -11,7 -18,9 -6,2 -13,3 -20,3 -13,0 -27,-4 -36,-12 -5,-4 -9,-9 -12,-14 -3,-5 -4,-11 -3,-16l-23 0c1,10 4,19 9,26 5,8 11,14 18,19 2,1 4,3 6,4 1,6 2,12 3,18 1,8 1,15 2,23 0,4 0,8 0,11 0,4 0,8 0,11 -1,7 -1,13 -4,20 -2,1 -4,2 -6,4 -7,5 -13,11 -18,18 -3,4 -5,8 -6,12 -1,2 -2,4 -2,7 0,1 -1,2 -1,3 0,1 0,1 0,2l0 1 23 0 0 -1c0,0 0,-1 0,-1 0,-1 0,-1 0,-2 0,-1 0,-3 0,-4 0,-3 1,-6 2,-8 3,-5 7,-10 12,-14 5,-4 11,-7 18,-9 6,-2 13,-3 20,-3 13,0 27,4 36,12 5,4 9,9 12,14 3,5 4,11 3,16l23 0zm-55 -67c0,4 -1,7 -1,11 -6,-1 -12,-2 -18,-2 -6,0 -12,1 -18,2 -1,-4 -1,-7 -1,-11 0,-4 0,-8 0,-11 0,-4 0,-8 0,-11 0,-8 1,-15 2,-23 0,-3 1,-6 1,-9 5,1 11,1 17,1 6,0 11,-1 16,-2 0,3 1,6 1,10 1,8 1,15 2,23 0,4 0,8 0,11 0,4 0,8 0,11z"/>
 </g>
</svg>
