<?xml version="1.0" encoding="UTF-8"?>
<!DOCTYPE svg PUBLIC "-//W3C//DTD SVG 1.1//EN" "http://www.w3.org/Graphics/SVG/1.1/DTD/svg11.dtd">
<!-- Creator: CorelDRAW X6 -->
<svg xmlns="http://www.w3.org/2000/svg" xml:space="preserve" width="52.8762mm" height="64.8669mm" version="1.1" style="shape-rendering:geometricPrecision; text-rendering:geometricPrecision; image-rendering:optimizeQuality; fill-rule:evenodd; clip-rule:evenodd"
viewBox="0 0 2353 2886"
 xmlns:xlink="http://www.w3.org/1999/xlink">
 <defs>
  <style type="text/css">
   <![CDATA[
    .str0 {stroke:#373435;stroke-width:31.3945}
    .fil0 {fill:#373435;fill-rule:nonzero}
   ]]>
  </style>
 </defs>
 <g id="fertige_x0020_Planeten">
  <metadata id="CorelCorpID_0Corel-Layer"/>
  <g id="_620998208">
   <path class="fil0 str0" d="M1176 16c-641,0 -1160,520 -1160,1160 0,641 520,1160 1160,1160 641,0 1161,-520 1161,-1160 0,-641 -520,-1160 -1161,-1160zm0 2224l0 0c-587,0 -1064,-476 -1064,-1064 0,-588 476,-1064 1064,-1064 587,0 1064,476 1064,1064 0,587 -477,1064 -1064,1064z"/>
   <path class="fil0 str0" d="M1321 1176c0,80 -65,145 -145,145 -80,0 -145,-65 -145,-145 0,-80 65,-145 145,-145 80,0 145,65 145,145z"/>
  </g>
  <g id="_619904944">
   <path class="fil0" d="M853 2822l29 -2c1,10 5,17 9,24 5,6 13,11 23,15 10,4 22,6 35,6 12,0 22,-1 31,-4 9,-3 15,-7 20,-12 4,-5 6,-10 6,-16 0,-6 -2,-11 -6,-16 -4,-4 -11,-8 -21,-11 -6,-2 -20,-5 -41,-9 -21,-4 -36,-8 -44,-12 -11,-5 -19,-11 -24,-18 -5,-7 -8,-15 -8,-24 0,-10 3,-19 10,-27 7,-8 16,-15 29,-19 13,-4 27,-7 42,-7 17,0 32,2 45,7 13,5 23,11 30,20 7,9 11,19 11,30l-29 2c-2,-12 -7,-21 -16,-27 -9,-6 -22,-9 -40,-9 -18,0 -32,3 -40,8 -8,6 -13,12 -13,20 0,7 3,13 9,17 6,4 21,9 46,14 25,5 42,9 51,12 13,5 23,12 30,19 6,8 10,17 10,27 0,10 -3,20 -10,29 -7,9 -17,16 -30,21 -13,5 -28,7 -44,7 -21,0 -38,-3 -52,-8 -14,-5 -25,-13 -33,-23 -8,-10 -12,-22 -13,-34z"/>
   <path class="fil0" d="M1227 2692l30 0 0 110c0,19 -3,34 -8,46 -5,11 -15,20 -28,28 -14,7 -31,11 -54,11 -21,0 -39,-3 -53,-9 -14,-6 -23,-15 -29,-27 -6,-12 -9,-28 -9,-48l0 -110 30 0 0 110c0,17 2,29 6,37 4,8 10,14 19,18 9,4 20,6 33,6 22,0 38,-4 48,-13 9,-8 14,-25 14,-49l0 -110z"/>
   <polygon class="fil0" points="1307,2883 1307,2692 1338,2692 1459,2842 1459,2692 1488,2692 1488,2883 1457,2883 1336,2733 1336,2883 "/>
  </g>
 </g>
</svg>
