<?xml version="1.0" encoding="UTF-8"?>
<!DOCTYPE svg PUBLIC "-//W3C//DTD SVG 1.1//EN" "http://www.w3.org/Graphics/SVG/1.1/DTD/svg11.dtd">
<!-- Creator: CorelDRAW X6 -->
<svg xmlns="http://www.w3.org/2000/svg" xml:space="preserve" width="27.4374mm" height="51.3975mm" version="1.1" style="shape-rendering:geometricPrecision; text-rendering:geometricPrecision; image-rendering:optimizeQuality; fill-rule:evenodd; clip-rule:evenodd"
viewBox="0 0 440 825"
 xmlns:xlink="http://www.w3.org/1999/xlink">
 <defs>
  <style type="text/css">
   <![CDATA[
    .str0 {stroke:#373435;stroke-width:11.3193}
    .fil0 {fill:#373435;fill-rule:nonzero}
   ]]>
  </style>
 </defs>
 <g id="fertige_x0020_Planeten">
  <metadata id="CorelCorpID_0Corel-Layer"/>
  <path class="fil0 str0" d="M240 254l0 -88 88 88 25 -25 -99 -99 99 -99 -25 -25 -88 88 0 -87 -35 0 0 245c-88,9 -157,83 -157,173 0,96 78,174 174,174 96,0 174,-78 174,-174 0,-90 -69,-165 -157,-173zm-17 313l0 0c-77,0 -139,-62 -139,-139 0,-77 62,-139 139,-139 77,0 139,62 139,139 0,77 -62,139 -139,139z"/>
  <g id="_624484176">
   <path class="fil0" d="M62 799l11 2c-2,7 -6,13 -12,17 -6,4 -13,6 -22,6 -9,0 -16,-2 -22,-5 -6,-3 -10,-7 -13,-13 -3,-6 -4,-12 -4,-18 0,-7 2,-13 5,-19 3,-5 8,-9 14,-12 6,-3 13,-4 20,-4 8,0 15,2 21,5 6,4 10,8 12,15l-11 2c-2,-5 -5,-9 -8,-11 -4,-2 -8,-3 -14,-3 -6,0 -12,1 -16,4 -4,3 -7,6 -9,10 -2,4 -3,9 -3,13 0,6 1,11 3,15 2,4 5,8 10,10 4,2 9,3 14,3 6,0 11,-1 16,-4 4,-3 7,-7 9,-13z"/>
   <polygon class="fil0" points="87,823 87,754 98,754 98,783 141,783 141,754 152,754 152,823 141,823 141,791 98,791 98,823 "/>
   <polygon class="fil0" points="172,823 172,754 183,754 183,823 "/>
   <path class="fil0" d="M202 823l0 -69 37 0c7,0 13,1 17,2 4,1 7,3 9,7 2,3 3,7 3,10 0,5 -2,9 -6,12 -4,3 -10,5 -18,6 3,1 5,2 7,3 3,2 6,5 9,9l14 19 -14 0 -11 -14c-3,-4 -6,-7 -8,-9 -2,-2 -4,-4 -6,-5 -2,-1 -3,-1 -5,-2 -1,0 -3,0 -6,0l-13 0 0 31 -11 0zm11 -38l0 0 24 0c5,0 9,0 12,-1 3,-1 5,-2 6,-4 1,-2 2,-4 2,-6 0,-3 -1,-6 -4,-8 -3,-2 -7,-3 -13,-3l-26 0 0 23z"/>
   <path class="fil0" d="M282 790c0,-11 4,-20 11,-27 7,-6 17,-10 29,-10 8,0 15,2 21,5 6,3 11,7 14,13 3,5 5,12 5,18 0,7 -2,13 -5,19 -3,6 -8,10 -14,13 -6,3 -13,4 -20,4 -8,0 -15,-2 -21,-5 -6,-3 -11,-7 -14,-13 -3,-5 -5,-11 -5,-17zm11 0l0 0c0,8 3,15 8,20 5,5 12,7 20,7 8,0 15,-2 20,-7 5,-5 8,-12 8,-21 0,-6 -1,-11 -3,-15 -2,-4 -6,-7 -10,-10 -4,-2 -9,-3 -15,-3 -8,0 -14,2 -20,7 -6,4 -8,12 -8,22z"/>
   <polygon class="fil0" points="375,823 375,754 386,754 430,809 430,754 440,754 440,823 429,823 386,769 386,823 "/>
  </g>
 </g>
</svg>
