<?xml version="1.0" encoding="UTF-8"?>
<!DOCTYPE svg PUBLIC "-//W3C//DTD SVG 1.1//EN" "http://www.w3.org/Graphics/SVG/1.1/DTD/svg11.dtd">
<!-- Creator: CorelDRAW X6 -->
<svg xmlns="http://www.w3.org/2000/svg" xml:space="preserve" width="86.4453mm" height="61.6056mm" version="1.1" style="shape-rendering:geometricPrecision; text-rendering:geometricPrecision; image-rendering:optimizeQuality; fill-rule:evenodd; clip-rule:evenodd"
viewBox="0 0 8728 6220"
 xmlns:xlink="http://www.w3.org/1999/xlink">
 <defs>
  <style type="text/css">
   <![CDATA[
    .str0 {stroke:#373435;stroke-width:71.2395}
    .fil0 {fill:#373435;fill-rule:nonzero}
   ]]>
  </style>
 </defs>
 <g id="fertige_x0020_Planeten">
  <metadata id="CorelCorpID_0Corel-Layer"/>
  <g id="_623954560">   
   <path class="fil0 str0" d="M7985 3525c432,-362 707,-906 707,-1514 0,-1091 -884,-1975 -1975,-1975 -1091,0 -1975,884 -1975,1975 0,608 275,1152 707,1514 -281,75 -488,331 -488,636 0,364 295,658 658,658 364,0 658,-295 658,-658 0,-256 -146,-477 -359,-586 -568,-291 -958,-882 -958,-1564 0,-970 786,-1756 1756,-1756 970,0 1756,786 1756,1756 0,683 -391,1273 -959,1565 -212,109 -358,331 -358,586 0,364 295,658 658,658 364,0 658,-295 658,-658 0,-305 -207,-561 -488,-636zm-2365 197l0 0c242,0 439,196 439,439 0,242 -197,439 -439,439 -242,0 -439,-196 -439,-439 0,-242 197,-439 439,-439zm2194 878l0 0c-242,0 -439,-196 -439,-439 0,-242 197,-439 439,-439 242,0 439,196 439,439 0,242 -196,439 -439,439z"/>
  </g>  
 </g>
</svg>
