<?xml version="1.0" encoding="UTF-8"?>
<!DOCTYPE svg PUBLIC "-//W3C//DTD SVG 1.1//EN" "http://www.w3.org/Graphics/SVG/1.1/DTD/svg11.dtd">
<!-- Creator: CorelDRAW X6 -->
<svg xmlns="http://www.w3.org/2000/svg" xml:space="preserve" width="86.4453mm" height="61.6056mm" version="1.1" style="shape-rendering:geometricPrecision; text-rendering:geometricPrecision; image-rendering:optimizeQuality; fill-rule:evenodd; clip-rule:evenodd"
viewBox="0 0 8728 6220"
 xmlns:xlink="http://www.w3.org/1999/xlink">
 <defs>
  <style type="text/css">
   <![CDATA[
    .str0 {stroke:#373435;stroke-width:71.2395}
    .fil0 {fill:#373435;fill-rule:nonzero}
   ]]>
  </style>
 </defs>
 <g id="fertige_x0020_Planeten">
  <metadata id="CorelCorpID_0Corel-Layer"/>
  <g id="_623954560">
   <path class="fil0 str0" d="M3766 694c0,-364 -295,-658 -658,-658 -364,0 -658,295 -658,658 0,255 145,477 358,586 568,292 959,882 959,1565 0,970 -786,1756 -1756,1756 -970,0 -1756,-786 -1756,-1756 0,-682 389,-1273 958,-1564 213,-109 359,-330 359,-586 0,-364 -295,-658 -658,-658 -364,0 -658,295 -658,658 0,305 207,561 488,636 -432,362 -707,906 -707,1514 0,1091 884,1975 1975,1975 1091,0 1975,-884 1975,-1975 0,-608 -275,-1152 -707,-1514 281,-75 488,-331 488,-636zm-3292 0l0 0c0,-242 197,-439 439,-439 242,0 439,196 439,439 0,242 -197,439 -439,439 -242,0 -439,-197 -439,-439zm3072 0l0 0c0,242 -196,439 -439,439 -242,0 -439,-197 -439,-439 0,-242 197,-439 439,-439 242,0 439,196 439,439z"/>
   <path class="fil0 str0" d="M7985 3525c432,-362 707,-906 707,-1514 0,-1091 -884,-1975 -1975,-1975 -1091,0 -1975,884 -1975,1975 0,608 275,1152 707,1514 -281,75 -488,331 -488,636 0,364 295,658 658,658 364,0 658,-295 658,-658 0,-256 -146,-477 -359,-586 -568,-291 -958,-882 -958,-1564 0,-970 786,-1756 1756,-1756 970,0 1756,786 1756,1756 0,683 -391,1273 -959,1565 -212,109 -358,331 -358,586 0,364 295,658 658,658 364,0 658,-295 658,-658 0,-305 -207,-561 -488,-636zm-2365 197l0 0c242,0 439,196 439,439 0,242 -197,439 -439,439 -242,0 -439,-196 -439,-439 0,-242 197,-439 439,-439zm2194 878l0 0c-242,0 -439,-196 -439,-439 0,-242 197,-439 439,-439 242,0 439,196 439,439 0,242 -196,439 -439,439z"/>
  </g>
  <g id="_623847040">
   <polygon class="fil0" points="1992,6212 1992,5779 2060,5779 2060,6161 2317,6161 2317,6212 "/>
   <path class="fil0" d="M2740 5779l69 0 0 250c0,44 -6,78 -18,104 -12,26 -33,46 -64,63 -31,16 -71,24 -122,24 -49,0 -89,-7 -120,-21 -31,-14 -53,-34 -66,-61 -13,-27 -20,-63 -20,-109l0 -250 69 0 0 250c0,38 4,65 13,83 8,18 23,32 43,41 20,10 45,14 75,14 51,0 87,-10 108,-29 21,-19 32,-56 32,-110l0 -250z"/>
   <polygon class="fil0" points="2923,6212 2923,5779 2993,5779 3266,6119 3266,5779 3332,5779 3332,6212 3262,6212 2989,5872 2989,6212 "/>
   <path class="fil0" d="M3391 6212l200 -433 74 0 213 433 -78 0 -61 -131 -217 0 -57 131 -73 0zm150 -178l0 0 176 0 -54 -120c-17,-36 -29,-66 -37,-90 -7,28 -16,55 -28,83l-57 127z"/>
   <path class="fil0" d="M3934 6212l0 -433 231 0c46,0 82,4 106,12 24,8 43,22 58,41 14,20 22,41 22,65 0,31 -12,57 -36,78 -24,21 -61,34 -111,40 18,7 32,14 41,22 20,15 39,35 57,58l90 118 -87 0 -69 -90c-20,-26 -37,-46 -50,-60 -13,-14 -25,-23 -35,-29 -10,-6 -21,-9 -31,-12 -8,-1 -21,-2 -38,-2l-80 0 0 192 -69 0zm69 -242l0 0 148 0c31,0 56,-3 74,-8 18,-5 31,-14 40,-26 9,-12 14,-25 14,-39 0,-20 -9,-37 -27,-51 -18,-13 -46,-20 -85,-20l-165 0 0 143z"/>
   <polygon class="fil0" points="4659,6212 4659,5779 4729,5779 5002,6119 5002,5779 5068,5779 5068,6212 4998,6212 4724,5872 4724,6212 "/>
   <path class="fil0" d="M5163 6001c0,-72 23,-128 70,-169 46,-41 106,-61 180,-61 48,0 91,10 130,29 39,19 68,46 88,80 20,34 30,73 30,116 0,44 -11,83 -32,118 -21,35 -51,61 -90,79 -39,18 -81,27 -126,27 -49,0 -93,-10 -131,-30 -39,-20 -68,-47 -88,-81 -20,-34 -30,-70 -30,-108zm71 1l0 0c0,52 17,93 51,123 34,30 76,45 127,45 52,0 94,-15 128,-46 33,-30 50,-73 50,-129 0,-35 -7,-66 -21,-92 -14,-26 -35,-47 -63,-61 -28,-14 -58,-22 -93,-22 -49,0 -91,14 -126,42 -35,28 -53,74 -53,140z"/>
   <path class="fil0" d="M5749 6212l0 -433 179 0c40,0 71,2 93,6 30,6 55,16 76,31 27,19 48,44 62,74 14,30 20,64 20,103 0,33 -5,62 -14,88 -9,25 -21,46 -35,63 -14,17 -30,30 -47,39 -17,10 -38,17 -62,22 -24,5 -52,7 -84,7l-188 0zm69 -51l0 0 111 0c34,0 61,-3 81,-8 20,-5 35,-13 47,-22 16,-14 29,-32 38,-55 9,-23 14,-51 14,-84 0,-45 -9,-80 -27,-105 -18,-24 -40,-41 -65,-49 -18,-6 -48,-9 -89,-9l-109 0 0 331z"/>
   <polygon class="fil0" points="6275,6212 6275,5779 6651,5779 6651,5830 6344,5830 6344,5963 6632,5963 6632,6014 6344,6014 6344,6161 6663,6161 6663,6212 "/>
  </g>
 </g>
</svg>
