<?xml version="1.0" encoding="UTF-8"?>
<!DOCTYPE svg PUBLIC "-//W3C//DTD SVG 1.1//EN" "http://www.w3.org/Graphics/SVG/1.1/DTD/svg11.dtd">
<!-- Creator: CorelDRAW X6 -->
<svg xmlns="http://www.w3.org/2000/svg" xml:space="preserve" width="35.1365mm" height="58.777mm" version="1.1" style="shape-rendering:geometricPrecision; text-rendering:geometricPrecision; image-rendering:optimizeQuality; fill-rule:evenodd; clip-rule:evenodd"
viewBox="0 0 4002 6695"
 xmlns:xlink="http://www.w3.org/1999/xlink">
 <defs>
  <style type="text/css">
   <![CDATA[
    .str0 {stroke:#373435;stroke-width:80.3745}
    .fil0 {fill:#373435;fill-rule:nonzero}
   ]]>
  </style>
 </defs>
 <g id="fertige_x0020_Planeten">
  <metadata id="CorelCorpID_0Corel-Layer"/>
  <path class="fil0 str0" d="M3715 40l-1238 0 0 248 1063 0 -631 631c-304,-264 -701,-423 -1135,-423 -958,0 -1733,776 -1733,1733 0,957 776,1733 1733,1733 957,0 1733,-776 1733,-1733 0,-434 -160,-831 -423,-1135l631 -631 0 1063 248 0 0 -1238 0 -248 -248 0zm-1941 3674l0 0c-821,0 -1486,-665 -1486,-1485 0,-820 665,-1485 1486,-1485 821,0 1486,665 1486,1485 0,820 -665,1485 -1486,1485z"/>  
 </g>
</svg>
