<?xml version="1.0" encoding="UTF-8"?>
<!DOCTYPE svg PUBLIC "-//W3C//DTD SVG 1.1//EN" "http://www.w3.org/Graphics/SVG/1.1/DTD/svg11.dtd">
<!-- Creator: CorelDRAW X6 -->
<svg xmlns="http://www.w3.org/2000/svg" xml:space="preserve" width="35.6636mm" height="59.9804mm" version="1.1" style="shape-rendering:geometricPrecision; text-rendering:geometricPrecision; image-rendering:optimizeQuality; fill-rule:evenodd; clip-rule:evenodd"
viewBox="0 0 609 1025"
 xmlns:xlink="http://www.w3.org/1999/xlink">
 <defs>
  <style type="text/css">
   <![CDATA[
    .str0 {stroke:#373435;stroke-width:12.0549}
    .fil0 {fill:#373435;fill-rule:nonzero}
   ]]>
  </style>
 </defs>
 <g id="fertige_x0020_Planeten">
  <metadata id="CorelCorpID_0Corel-Layer"/>
  <path class="fil0 str0" d="M559 355c0,-109 -68,-203 -163,-241 53,-21 97,-59 126,-107l-45 0c-41,54 -105,89 -178,89 -73,0 -137,-35 -178,-89l-45 0c29,48 73,86 126,107 -96,38 -163,132 -163,241 0,137 106,250 241,259l0 75 -93 0 0 37 93 0 0 74 37 0 0 -74 93 0 0 -37 -93 0 0 -75c135,-10 241,-122 241,-259zm-260 223l0 0c-123,0 -223,-100 -223,-223 0,-123 100,-223 223,-223 123,0 223,100 223,223 0,123 -100,223 -223,223z"/>  
 </g>
</svg>
