<?xml version="1.0" encoding="UTF-8"?>
<!DOCTYPE svg PUBLIC "-//W3C//DTD SVG 1.1//EN" "http://www.w3.org/Graphics/SVG/1.1/DTD/svg11.dtd">
<!-- Creator: CorelDRAW X6 -->
<svg xmlns="http://www.w3.org/2000/svg" xml:space="preserve" width="35.6636mm" height="59.9804mm" version="1.1" style="shape-rendering:geometricPrecision; text-rendering:geometricPrecision; image-rendering:optimizeQuality; fill-rule:evenodd; clip-rule:evenodd"
viewBox="0 0 609 1025"
 xmlns:xlink="http://www.w3.org/1999/xlink">
 <defs>
  <style type="text/css">
   <![CDATA[
    .str0 {stroke:#373435;stroke-width:12.0549}
    .fil0 {fill:#373435;fill-rule:nonzero}
   ]]>
  </style>
 </defs>
 <g id="fertige_x0020_Planeten">
  <metadata id="CorelCorpID_0Corel-Layer"/>
  <path class="fil0 str0" d="M559 355c0,-109 -68,-203 -163,-241 53,-21 97,-59 126,-107l-45 0c-41,54 -105,89 -178,89 -73,0 -137,-35 -178,-89l-45 0c29,48 73,86 126,107 -96,38 -163,132 -163,241 0,137 106,250 241,259l0 75 -93 0 0 37 93 0 0 74 37 0 0 -74 93 0 0 -37 -93 0 0 -75c135,-10 241,-122 241,-259zm-260 223l0 0c-123,0 -223,-100 -223,-223 0,-123 100,-223 223,-223 123,0 223,100 223,223 0,123 -100,223 -223,223z"/>
  <g id="_624477680">
   <path class="fil0" d="M0 1023l0 -73 18 0 21 52c2,5 3,8 4,11 1,-3 3,-7 5,-12l21 -51 16 0 0 73 -11 0 0 -61 -26 61 -11 0 -25 -62 0 62 -11 0z"/>
   <polygon class="fil0" points="103,1023 103,950 167,950 167,959 115,959 115,981 163,981 163,990 115,990 115,1015 169,1015 169,1023 "/>
   <path class="fil0" d="M185 1023l0 -73 39 0c8,0 14,1 18,2 4,1 7,4 10,7 2,3 4,7 4,11 0,5 -2,10 -6,13 -4,4 -10,6 -19,7 3,1 5,2 7,4 3,3 7,6 10,10l15 20 -15 0 -12 -15c-3,-4 -6,-8 -8,-10 -2,-2 -4,-4 -6,-5 -2,-1 -4,-2 -5,-2 -1,0 -3,0 -6,0l-14 0 0 33 -12 0zm12 -41l0 0 25 0c5,0 9,0 12,-1 3,-1 5,-2 7,-4 2,-2 2,-4 2,-7 0,-3 -2,-6 -5,-9 -3,-2 -8,-3 -14,-3l-28 0 0 24z"/>
   <path class="fil0" d="M336 998l12 2c-2,8 -7,14 -13,18 -6,4 -14,6 -23,6 -9,0 -17,-2 -23,-5 -6,-3 -10,-8 -14,-14 -3,-6 -5,-13 -5,-20 0,-8 2,-14 5,-20 4,-6 8,-10 15,-13 6,-3 14,-4 21,-4 9,0 16,2 22,6 6,4 10,9 13,16l-11 2c-2,-5 -5,-9 -9,-12 -4,-2 -9,-4 -15,-4 -7,0 -12,1 -17,4 -5,3 -8,6 -10,11 -2,5 -3,9 -3,14 0,6 1,12 3,16 2,5 6,8 10,10 5,2 10,3 15,3 7,0 12,-2 17,-5 5,-3 8,-8 9,-14z"/>
   <path class="fil0" d="M420 950l12 0 0 42c0,7 -1,13 -3,18 -2,4 -6,8 -11,11 -5,3 -12,4 -21,4 -8,0 -15,-1 -20,-4 -5,-2 -9,-6 -11,-10 -2,-4 -3,-11 -3,-18l0 -42 12 0 0 42c0,6 1,11 2,14 1,3 4,5 7,7 3,2 8,2 13,2 9,0 15,-2 18,-5 4,-3 5,-9 5,-19l0 -42z"/>
   <path class="fil0" d="M451 1023l0 -73 39 0c8,0 14,1 18,2 4,1 7,4 10,7 2,3 4,7 4,11 0,5 -2,10 -6,13 -4,4 -10,6 -19,7 3,1 5,2 7,4 3,3 7,6 10,10l15 20 -15 0 -12 -15c-3,-4 -6,-8 -8,-10 -2,-2 -4,-4 -6,-5 -2,-1 -4,-2 -5,-2 -1,0 -3,0 -6,0l-14 0 0 33 -12 0zm12 -41l0 0 25 0c5,0 9,0 12,-1 3,-1 5,-2 7,-4 2,-2 2,-4 2,-7 0,-3 -2,-6 -5,-9 -3,-2 -8,-3 -14,-3l-28 0 0 24z"/>
   <path class="fil0" d="M563 1023l0 -31 -34 -42 14 0 17 22c3,4 6,8 9,12 3,-4 6,-8 10,-13l17 -22 14 0 -35 42 0 31 -12 0z"/>
  </g>
 </g>
</svg>
