<?xml version="1.0" encoding="UTF-8"?>
<!DOCTYPE svg PUBLIC "-//W3C//DTD SVG 1.1//EN" "http://www.w3.org/Graphics/SVG/1.1/DTD/svg11.dtd">
<!-- Creator: CorelDRAW X6 -->
<svg xmlns="http://www.w3.org/2000/svg" xml:space="preserve" width="38.4844mm" height="64.8669mm" version="1.1" style="shape-rendering:geometricPrecision; text-rendering:geometricPrecision; image-rendering:optimizeQuality; fill-rule:evenodd; clip-rule:evenodd"
viewBox="0 0 7464 12581"
 xmlns:xlink="http://www.w3.org/1999/xlink">
 <defs>
  <style type="text/css">
   <![CDATA[
    .str0 {stroke:#000000;stroke-width:136.855}
    .fil0 {fill:#000000;fill-rule:nonzero}
   ]]>
  </style>
 </defs>
 <g id="fertige_x0020_Planeten">
  <metadata id="CorelCorpID_0Corel-Layer"/>
  <path class="fil0 str0" d="M2337 68c-739,0 -1441,159 -2074,444 2348,229 4182,2208 4182,4615 0,2408 -1835,4387 -4182,4615 633,285 1335,444 2074,444 2794,0 5059,-2265 5059,-5059 0,-2794 -2265,-5059 -5059,-5059zm0 9696l0 0c-153,0 -305,-7 -455,-22 1759,-792 2984,-2561 2984,-4615 0,-2055 -1225,-3823 -2984,-4615 150,-15 301,-22 455,-22 2561,0 4637,2076 4637,4637 0,2561 -2076,4637 -4637,4637z"/>  
 </g>
</svg>
