<?xml version="1.0" encoding="UTF-8"?>
<!DOCTYPE svg PUBLIC "-//W3C//DTD SVG 1.1//EN" "http://www.w3.org/Graphics/SVG/1.1/DTD/svg11.dtd">
<!-- Creator: CorelDRAW X6 -->
<svg xmlns="http://www.w3.org/2000/svg" xml:space="preserve" width="38.4844mm" height="64.8669mm" version="1.1" style="shape-rendering:geometricPrecision; text-rendering:geometricPrecision; image-rendering:optimizeQuality; fill-rule:evenodd; clip-rule:evenodd"
viewBox="0 0 7464 12581"
 xmlns:xlink="http://www.w3.org/1999/xlink">
 <defs>
  <style type="text/css">
   <![CDATA[
    .str0 {stroke:#373435;stroke-width:136.855}
    .fil0 {fill:#373435;fill-rule:nonzero}
   ]]>
  </style>
 </defs>
 <g id="fertige_x0020_Planeten">
  <metadata id="CorelCorpID_0Corel-Layer"/>
  <path class="fil0 str0" d="M2337 68c-739,0 -1441,159 -2074,444 2348,229 4182,2208 4182,4615 0,2408 -1835,4387 -4182,4615 633,285 1335,444 2074,444 2794,0 5059,-2265 5059,-5059 0,-2794 -2265,-5059 -5059,-5059zm0 9696l0 0c-153,0 -305,-7 -455,-22 1759,-792 2984,-2561 2984,-4615 0,-2055 -1225,-3823 -2984,-4615 150,-15 301,-22 455,-22 2561,0 4637,2076 4637,4637 0,2561 -2076,4637 -4637,4637z"/>
  <g id="_620545616">
   <path class="fil0" d="M1762 12567l0 -833 199 0 236 590c22,55 38,96 48,123 11,-30 29,-75 53,-133l239 -579 178 0 0 833 -127 0 0 -697 -290 697 -119 0 -289 -709 0 709 -127 0z"/>
   <path class="fil0" d="M2888 12162c0,-138 44,-246 134,-325 89,-78 204,-117 345,-117 92,0 175,18 249,55 74,37 131,88 169,154 39,66 58,140 58,223 0,84 -20,160 -61,227 -41,67 -99,117 -174,151 -75,34 -156,51 -243,51 -94,0 -178,-19 -252,-57 -74,-38 -130,-90 -168,-155 -38,-66 -57,-135 -57,-208zm136 2l0 0c0,100 32,179 97,237 65,58 146,87 244,87 99,0 181,-29 246,-87 64,-58 96,-141 96,-248 0,-68 -14,-127 -41,-177 -27,-51 -68,-90 -121,-118 -53,-28 -112,-42 -178,-42 -94,0 -174,27 -242,80 -67,54 -101,143 -101,268z"/>
   <path class="fil0" d="M3974 12162c0,-138 44,-246 134,-325 89,-78 204,-117 345,-117 92,0 175,18 249,55 74,37 131,88 169,154 39,66 58,140 58,223 0,84 -20,160 -61,227 -41,67 -99,117 -174,151 -75,34 -156,51 -243,51 -94,0 -178,-19 -252,-57 -74,-38 -130,-90 -168,-155 -38,-66 -57,-135 -57,-208zm136 2l0 0c0,100 32,179 97,237 65,58 146,87 244,87 99,0 181,-29 246,-87 64,-58 96,-141 96,-248 0,-68 -14,-127 -41,-177 -27,-51 -68,-90 -121,-118 -53,-28 -112,-42 -178,-42 -94,0 -174,27 -242,80 -67,54 -101,143 -101,268z"/>
   <polygon class="fil0" points="5099,12567 5099,11735 5234,11735 5759,12388 5759,11735 5886,11735 5886,12567 5750,12567 5225,11913 5225,12567 "/>
  </g>
 </g>
</svg>
