<?xml version="1.0" encoding="UTF-8"?>
<!DOCTYPE svg PUBLIC "-//W3C//DTD SVG 1.1//EN" "http://www.w3.org/Graphics/SVG/1.1/DTD/svg11.dtd">
<!-- Creator: CorelDRAW X6 -->
<svg xmlns="http://www.w3.org/2000/svg" xml:space="preserve" width="38.4775mm" height="57.9162mm" version="1.1" style="shape-rendering:geometricPrecision; text-rendering:geometricPrecision; image-rendering:optimizeQuality; fill-rule:evenodd; clip-rule:evenodd"
viewBox="0 0 3856 5805"
 xmlns:xlink="http://www.w3.org/1999/xlink">
 <defs>
  <style type="text/css">
   <![CDATA[
    .str0 {stroke:#373435;stroke-width:70.7175}
    .fil0 {fill:#373435;fill-rule:nonzero}
   ]]>
  </style>
 </defs>
 <g id="fertige_x0020_Planeten">
  <metadata id="CorelCorpID_0Corel-Layer"/>
  <path class="fil0 str0" d="M3344 921l-154 154 -308 308 154 154 199 -199 0 454c0,685 -527,1247 -1198,1302l0 -2628 199 199 154 -154 -462 -462 -154 154 -308 308 154 154 199 -199 0 2628c-671,-55 -1198,-617 -1198,-1302l0 -454 199 199 154 -154 -462 -462 -22 22 -440 440 154 154 199 -199 0 454c0,806 625,1465 1416,1521l0 440 -545 0 0 218 545 0 0 436 218 0 0 -436 545 0 0 -218 -545 0 0 -440c791,-56 1416,-715 1416,-1521l0 -454 199 199 154 -154 -462 -462z"/>
  <g id="_620976576">
   <polygon class="fil0" points="254,5797 254,5367 324,5367 595,5705 595,5367 661,5367 661,5797 590,5797 319,5459 319,5797 "/>
   <polygon class="fil0" points="777,5797 777,5367 1150,5367 1150,5418 845,5418 845,5549 1131,5549 1131,5600 845,5600 845,5746 1162,5746 1162,5797 "/>
   <path class="fil0" d="M1256 5797l0 -430 195 0c34,0 60,1 79,4 25,4 47,10 64,20 17,10 31,24 41,42 10,18 16,37 16,59 0,37 -14,68 -42,93 -28,25 -78,38 -151,38l-132 0 0 175 -68 0zm68 -226l0 0 133 0c44,0 75,-7 94,-21 19,-14 28,-33 28,-58 0,-18 -5,-33 -16,-46 -11,-13 -25,-21 -43,-25 -12,-3 -33,-4 -64,-4l-132 0 0 154z"/>
   <polygon class="fil0" points="1869,5797 1869,5418 1699,5418 1699,5367 2108,5367 2108,5418 1937,5418 1937,5797 "/>
   <path class="fil0" d="M2517 5367l68 0 0 249c0,43 -6,78 -18,103 -12,25 -33,46 -64,62 -31,16 -71,24 -121,24 -48,0 -88,-7 -119,-21 -31,-14 -53,-34 -66,-60 -13,-26 -20,-62 -20,-108l0 -249 68 0 0 248c0,37 4,65 12,83 8,18 23,31 43,41 20,10 45,14 74,14 50,0 86,-10 107,-28 21,-19 32,-55 32,-109l0 -248z"/>
   <polygon class="fil0" points="2698,5797 2698,5367 2768,5367 3040,5705 3040,5367 3105,5367 3105,5797 3035,5797 2764,5459 2764,5797 "/>
   <polygon class="fil0" points="3221,5797 3221,5367 3595,5367 3595,5418 3290,5418 3290,5549 3575,5549 3575,5600 3290,5600 3290,5746 3607,5746 3607,5797 "/>
  </g>
 </g>
</svg>
