<?xml version="1.0" encoding="UTF-8"?>
<!DOCTYPE svg PUBLIC "-//W3C//DTD SVG 1.1//EN" "http://www.w3.org/Graphics/SVG/1.1/DTD/svg11.dtd">
<!-- Creator: CorelDRAW X6 -->
<svg xmlns="http://www.w3.org/2000/svg" xml:space="preserve" width="38.4775mm" height="57.9162mm" version="1.1" style="shape-rendering:geometricPrecision; text-rendering:geometricPrecision; image-rendering:optimizeQuality; fill-rule:evenodd; clip-rule:evenodd"
viewBox="0 0 3856 5805"
 xmlns:xlink="http://www.w3.org/1999/xlink">
 <defs>
  <style type="text/css">
   <![CDATA[
    .str0 {stroke:#000000;stroke-width:70.7175}
    .fil0 {fill:#000000;fill-rule:nonzero}
   ]]>
  </style>
 </defs>
 <g id="fertige_x0020_Planeten">
  <metadata id="CorelCorpID_0Corel-Layer"/>
  <path class="fil0 str0" d="M3344 921l-154 154 -308 308 154 154 199 -199 0 454c0,685 -527,1247 -1198,1302l0 -2628 199 199 154 -154 -462 -462 -154 154 -308 308 154 154 199 -199 0 2628c-671,-55 -1198,-617 -1198,-1302l0 -454 199 199 154 -154 -462 -462 -22 22 -440 440 154 154 199 -199 0 454c0,806 625,1465 1416,1521l0 440 -545 0 0 218 545 0 0 436 218 0 0 -436 545 0 0 -218 -545 0 0 -440c791,-56 1416,-715 1416,-1521l0 -454 199 199 154 -154 -462 -462z"/>  
 </g>
</svg>
