<?xml version="1.0" encoding="UTF-8"?>
<!DOCTYPE svg PUBLIC "-//W3C//DTD SVG 1.1//EN" "http://www.w3.org/Graphics/SVG/1.1/DTD/svg11.dtd">
<!-- Creator: CorelDRAW X6 -->
<svg xmlns="http://www.w3.org/2000/svg" xml:space="preserve" width="60.8897mm" height="51.2496mm" version="1.1" style="shape-rendering:geometricPrecision; text-rendering:geometricPrecision; image-rendering:optimizeQuality; fill-rule:evenodd; clip-rule:evenodd"
viewBox="0 0 4900 4124"
 xmlns:xlink="http://www.w3.org/1999/xlink">
 <defs>
  <style type="text/css">
   <![CDATA[
    .str0 {stroke:#373435;stroke-width:56.7793}
    .fil0 {fill:#373435;fill-rule:nonzero}
   ]]>
  </style>
 </defs>
 <g id="fertige_x0020_Planeten">
  <metadata id="CorelCorpID_0Corel-Layer"/>
  <g id="_619426208">
   <path class="fil0 str0" d="M3647 28c-483,0 -875,392 -875,874 0,483 392,875 875,875 483,0 874,-392 874,-875 0,-483 -391,-874 -874,-874zm0 1574l0 0c-386,0 -700,-313 -700,-700 0,-386 313,-700 700,-700 386,0 700,313 700,700 0,386 -313,700 -700,700z"/>
   <path class="fil0 str0" d="M4871 903l-175 0c0,580 -470,1049 -1049,1049 -580,0 -1049,-470 -1049,-1049l-175 0c0,647 502,1176 1137,1221l0 353 -437 0 0 175 437 0 0 350 175 0 0 -350 437 0 0 -175 -437 0 0 -353c635,-45 1137,-574 1137,-1221z"/>
  </g>
  <path class="fil0 str0" d="M203 1777l700 0c483,0 874,-392 874,-875 0,-483 -392,-874 -874,-874l-875 0 0 2973 1574 0 0 -175 -1399 0 0 -1049zm0 -1574l0 0 700 0c386,0 700,313 700,700 0,386 -313,700 -700,700l-700 0 0 -1399z"/>
  <g id="_623956384">
   <path class="fil0" d="M1488 4118l0 -345 156 0c28,0 49,1 63,3 20,3 37,8 51,16 14,8 25,19 33,33 8,14 13,30 13,47 0,29 -11,54 -34,75 -22,20 -63,31 -122,31l-106 0 0 140 -55 0zm55 -181l0 0 107 0c35,0 61,-6 76,-16 15,-11 22,-26 22,-46 0,-14 -4,-27 -13,-37 -9,-10 -20,-17 -35,-20 -9,-2 -26,-3 -51,-3l-106 0 0 123z"/>
   <polygon class="fil0" points="1872,4118 1872,3773 1927,3773 1927,4077 2131,4077 2131,4118 "/>
   <path class="fil0" d="M2468 3773l55 0 0 200c0,35 -5,62 -14,83 -9,20 -26,37 -51,50 -25,13 -57,19 -97,19 -39,0 -71,-6 -95,-17 -25,-11 -42,-27 -53,-48 -11,-21 -16,-50 -16,-87l0 -200 55 0 0 199c0,30 3,52 10,66 7,14 18,25 35,33 16,8 36,12 60,12 40,0 69,-8 86,-23 17,-15 26,-45 26,-88l0 -199z"/>
   <polygon class="fil0" points="2720,4118 2720,3813 2583,3813 2583,3773 2912,3773 2912,3813 2775,3813 2775,4118 "/>
   <path class="fil0" d="M2941 3950c0,-57 18,-102 55,-135 37,-32 85,-49 143,-49 38,0 73,8 103,23 31,15 54,36 70,64 16,27 24,58 24,93 0,35 -8,66 -25,94 -17,28 -41,49 -72,63 -31,14 -65,21 -101,21 -39,0 -74,-8 -105,-24 -31,-16 -54,-37 -70,-64 -16,-27 -24,-56 -24,-86zm57 1l0 0c0,42 13,74 40,98 27,24 61,36 101,36 41,0 75,-12 102,-36 27,-24 40,-59 40,-103 0,-28 -6,-53 -17,-74 -11,-21 -28,-37 -50,-49 -22,-12 -47,-17 -74,-17 -39,0 -72,11 -100,33 -28,22 -42,59 -42,111z"/>
  </g>
 </g>
</svg>
