<?xml version="1.0" encoding="UTF-8"?>
<!DOCTYPE svg PUBLIC "-//W3C//DTD SVG 1.1//EN" "http://www.w3.org/Graphics/SVG/1.1/DTD/svg11.dtd">
<!-- Creator: CorelDRAW X6 -->
<svg xmlns="http://www.w3.org/2000/svg" xml:space="preserve" width="23.694mm" height="28.8434mm" version="1.1" style="shape-rendering:geometricPrecision; text-rendering:geometricPrecision; image-rendering:optimizeQuality; fill-rule:evenodd; clip-rule:evenodd"
viewBox="0 0 112 137"
 xmlns:xlink="http://www.w3.org/1999/xlink">
 <defs>
  <style type="text/css">
   <![CDATA[
    .fil0 {fill:#373435}
   ]]>
  </style>
 </defs>
 <g id="Layer_x0020_1">
  <metadata id="CorelCorpID_0Corel-Layer"/>
  <path class="fil0" d="M96 113c-6,-3 -13,-4 -20,-4 3,-4 6,-8 9,-11 5,-7 10,-14 14,-21 4,-7 8,-15 10,-24 1,-4 2,-9 2,-13 0,-5 0,-10 -2,-14 -2,-5 -4,-9 -7,-13 -3,-4 -7,-7 -12,-9 -5,-2 -9,-3 -14,-4 -5,0 -10,0 -15,2 -5,1 -9,3 -14,6 -2,2 -4,3 -6,6 0,0 0,0 0,0 0,0 0,0 -1,0 -2,-1 -4,-1 -5,-2 -1,0 -2,0 -3,-1l-2 0 -1 0 -2 0 -1 0c-1,0 -2,0 -3,0 -2,0 -4,1 -6,1 -4,1 -7,4 -10,6 -3,3 -5,6 -7,10 -1,2 -1,4 -2,6 0,1 0,2 0,3l0 2 0 1 0 0c0,4 1,8 2,12 2,4 4,7 7,10 6,6 14,8 22,8 8,0 15,-4 20,-9 5,-5 8,-13 8,-20 0,-6 -2,-11 -5,-16l2 0 0 0 0 0c0,0 0,0 0,0 0,0 0,0 0,0 0,0 0,0 0,0 0,0 0,0 0,0 0,0 0,-1 0,-1 0,-1 1,-2 2,-3 2,-2 5,-4 8,-5 6,-2 13,-3 19,0 3,1 5,3 8,6 2,2 4,5 5,8 2,6 1,13 -1,20 -2,7 -5,14 -9,21 -4,7 -8,13 -13,19 -5,6 -10,12 -16,18 -5,5 -10,11 -16,15 0,0 -1,1 -2,1l10 11c0,0 0,0 0,0l0 0 1 -1c0,0 1,-1 1,-1 1,-1 2,-1 3,-2 2,-1 4,-2 6,-3 4,-2 9,-3 13,-3 4,0 8,1 12,3 4,2 7,5 10,8l13 -13c-5,-4 -10,-8 -16,-11zm-49 -65c-1,2 -2,4 -4,6 -4,3 -8,5 -13,4 -5,0 -9,-2 -11,-6 -3,-3 -4,-7 -4,-11l0 0 0 -1 0 -1c0,0 0,-1 0,-2 0,-1 0,-2 1,-3 1,-2 2,-4 3,-5 1,-2 3,-3 5,-4 1,0 2,-1 3,-1 1,0 1,0 2,0l1 0 0 0 0 0 0 0 0 0 0 0c0,0 0,0 0,0l1 0 1 0c1,0 1,0 2,0 1,0 2,0 3,1 2,1 4,2 6,4 2,2 3,4 4,6 1,2 1,5 1,7 0,2 -1,5 -1,7z"/>
 </g>
</svg>
