<?xml version="1.0" encoding="UTF-8"?>
<!DOCTYPE svg PUBLIC "-//W3C//DTD SVG 1.1//EN" "http://www.w3.org/Graphics/SVG/1.1/DTD/svg11.dtd">
<!-- Creator: CorelDRAW X6 -->
<svg xmlns="http://www.w3.org/2000/svg" xml:space="preserve" width="28.7922mm" height="21.0627mm" version="1.1" style="shape-rendering:geometricPrecision; text-rendering:geometricPrecision; image-rendering:optimizeQuality; fill-rule:evenodd; clip-rule:evenodd"
viewBox="0 0 468 343"
 xmlns:xlink="http://www.w3.org/1999/xlink">
 <defs>
  <style type="text/css">
   <![CDATA[
    .fil0 {fill:#ff9b00}
   ]]>
  </style>
 </defs>
 <g id="Layer_x0020_1">
  <metadata id="CorelCorpID_0Corel-Layer"/>
  <path class="fil0" d="M293 289l-59 1 -59 -1c-20,-1 -39,-1 -59,-2 -39,-2 -78,-4 -117,-8l0 63c39,-4 78,-7 117,-8 20,-1 39,-1 59,-2l59 -1 59 1c20,1 39,1 59,2 39,2 78,4 117,8l0 -63c-39,4 -78,7 -117,8 -20,1 -39,1 -59,2zm50 -83l0 0c16,-14 27,-35 30,-58 3,-23 -1,-48 -12,-71 -11,-23 -29,-42 -51,-56 -11,-7 -23,-12 -36,-16 -13,-3 -26,-5 -39,-5 -13,0 -26,2 -39,5 -13,4 -25,9 -36,16 -22,14 -40,33 -51,56 -11,22 -15,48 -12,71 1,6 2,12 4,17 2,6 4,11 6,16 5,10 12,19 20,26l0 0 -126 -30 0 60 126 -5 38 -2 -15 -33 0 0c-2,-3 -4,-7 -6,-10 -2,-4 -3,-7 -4,-11 -1,-4 -2,-8 -3,-12 -1,-4 -1,-8 -1,-12 0,-16 4,-33 13,-48 8,-15 21,-27 36,-36 15,-9 33,-13 50,-13 18,0 35,5 50,13 15,9 28,21 36,36 4,7 8,15 10,23 2,8 3,16 3,25 0,16 -5,32 -14,45l0 0 -15 32 37 2 126 5 0 -60 -126 30z"/>
 </g>
</svg>
