<?xml version="1.0" encoding="UTF-8"?>
<!DOCTYPE svg PUBLIC "-//W3C//DTD SVG 1.1//EN" "http://www.w3.org/Graphics/SVG/1.1/DTD/svg11.dtd">
<!-- Creator: CorelDRAW X6 -->
<svg xmlns="http://www.w3.org/2000/svg" xml:space="preserve" width="25.6012mm" height="24.0642mm" version="1.1" style="shape-rendering:geometricPrecision; text-rendering:geometricPrecision; image-rendering:optimizeQuality; fill-rule:evenodd; clip-rule:evenodd"
viewBox="0 0 364 342"
 xmlns:xlink="http://www.w3.org/1999/xlink">
 <defs>
  <style type="text/css">
   <![CDATA[
    .fil0 {fill:#ff0000}
   ]]>
  </style>
 </defs>
 <g id="Layer_x0020_1">
  <metadata id="CorelCorpID_0Corel-Layer"/>
  <path class="fil0" d="M360 78c-7,-27 -23,-53 -48,-67 -12,-7 -27,-11 -41,-11l-3 0 -2 0 -2 0 -3 0c-4,0 -7,1 -10,1 -7,1 -13,3 -20,6 -13,5 -24,14 -33,25 -7,9 -13,18 -17,28 -4,-9 -9,-18 -16,-27 -8,-11 -20,-20 -33,-25 -6,-3 -13,-5 -20,-6 -3,-1 -7,-1 -10,-1 -2,0 -3,0 -5,0l-1 0 -2 0 -3 0c-14,0 -29,4 -42,11 -25,15 -43,41 -48,69 -3,14 -3,29 0,43 1,7 3,14 5,21 1,3 2,7 4,10 1,2 1,3 2,5l2 4 51 -30 -2 -3c-1,-1 -1,-1 -2,-2 -1,-2 -2,-4 -3,-5 -2,-4 -4,-7 -5,-11 -3,-8 -4,-16 -3,-24 1,-8 3,-16 6,-23 4,-7 9,-13 16,-18 6,-5 14,-7 22,-8l2 0 0 0 0 0c-1,0 0,0 0,0l0 0 1 0c1,0 3,0 4,0 2,0 4,0 6,0 4,1 8,1 12,3 8,3 15,8 21,14 6,7 11,15 15,24 7,17 10,35 12,54 0,1 0,2 0,3 0,3 0,6 0,9l0 1c0,0 0,0 0,0l0 1 0 2 0 4 0 17c0,11 -1,23 -1,34 -2,35 -4,71 -8,106 -2,10 -5,20 -8,30l68 0c-3,-9 -5,-18 -7,-27 -4,-36 -6,-73 -8,-109 -1,-11 -1,-23 -1,-34l0 -17 0 -9c0,-2 0,-5 0,-8 0,-21 3,-43 10,-61 4,-9 8,-18 14,-25 6,-7 13,-13 21,-16 4,-2 8,-3 13,-4 2,0 5,-1 7,-1l2 0 2 0 2 0 2 0c9,0 17,3 24,8 14,10 22,28 22,45 0,9 -2,17 -5,25 -2,4 -4,7 -6,11 -1,2 -3,3 -4,5 -1,1 -1,1 -2,2 0,0 0,0 0,0l-1 1 -2 2 59 33 1 -2 0 -1 0 -1c1,-2 1,-4 2,-6 1,-4 2,-7 3,-11 2,-7 3,-14 3,-22 1,-15 0,-29 -3,-43z"/>
 </g>
</svg>
