<?xml version="1.0" encoding="UTF-8"?>
<!DOCTYPE svg PUBLIC "-//W3C//DTD SVG 1.1//EN" "http://www.w3.org/Graphics/SVG/1.1/DTD/svg11.dtd">
<!-- Creator: CorelDRAW X6 -->
<svg xmlns="http://www.w3.org/2000/svg" xml:space="preserve" width="24.4897mm" height="32.9692mm" version="1.1" style="shape-rendering:geometricPrecision; text-rendering:geometricPrecision; image-rendering:optimizeQuality; fill-rule:evenodd; clip-rule:evenodd"
viewBox="0 0 121 163"
 xmlns:xlink="http://www.w3.org/1999/xlink">
 <defs>
  <style type="text/css">
   <![CDATA[
    .fil0 {fill:#ff0000}
   ]]>
  </style>
 </defs>
 <g id="Layer_x0020_1">
  <metadata id="CorelCorpID_0Corel-Layer"/>
  <path class="fil0" d="M114 140c-5,3 -10,4 -14,4 -2,0 -4,-1 -6,-2 -2,-1 -3,-2 -5,-4 -3,-4 -4,-10 -5,-15 -1,-6 0,-12 2,-18 0,-1 1,-3 1,-4 0,-1 1,-3 2,-4 1,-3 3,-6 4,-9 3,-6 5,-13 8,-19 1,-3 2,-7 3,-10l1 -3c0,-1 1,-2 1,-3 0,-2 1,-4 1,-6 1,-7 0,-15 -2,-22 -1,-4 -3,-7 -6,-10 -3,-3 -6,-6 -9,-8 -4,-2 -7,-4 -11,-4 -4,-1 -8,-1 -12,-1 -8,0 -16,2 -23,7 -7,5 -12,12 -15,20 -1,4 -2,8 -2,12 0,4 0,8 1,13 1,4 3,7 5,10 2,3 4,6 5,9 1,1 1,2 2,3 -2,-1 -5,-1 -7,-1 -8,0 -16,3 -22,8 -3,3 -5,6 -7,9 -1,2 -2,4 -2,5 0,1 0,2 -1,3l0 2 0 1 0 2 0 1c0,1 0,2 0,3 0,2 1,4 1,6 1,4 3,7 6,10 3,3 6,6 9,7 2,1 4,2 6,2 1,0 2,1 3,1l2 0 1 0 2 0 2 0c1,0 2,0 3,0 2,0 4,-1 6,-1 4,-1 8,-3 11,-6 3,-3 6,-6 8,-10 1,-2 2,-4 2,-6 0,-1 0,-2 1,-3l0 -2 0 -1 0 0c0,-4 0,-8 -2,-12 0,0 0,-1 -1,-1 -1,-3 -1,-6 -2,-9 -2,-7 -6,-13 -9,-19 -3,-6 -6,-12 -8,-17 -1,-5 -1,-10 1,-16 2,-5 5,-10 9,-13 4,-3 10,-5 15,-5 6,0 12,0 17,3 5,2 8,7 11,12 2,5 3,11 3,17 0,1 0,3 -1,4 0,1 0,1 -1,2l-1 2c-1,3 -2,6 -3,9 -2,6 -5,12 -8,18 -1,3 -3,6 -4,9 -1,1 -2,3 -2,5 -1,2 -2,3 -2,5 -3,7 -4,14 -4,22 0,8 1,16 5,23 2,4 5,7 9,10 4,3 8,5 13,6 4,1 9,1 13,1 4,0 8,-1 12,-2l-8 -21zm-71 -48c3,4 4,8 4,12l0 0 0 1 0 1c0,1 0,1 0,2 0,1 -1,2 -1,3 -1,2 -2,4 -4,5 -2,2 -3,3 -6,4 -1,0 -2,1 -3,1 -1,0 -1,0 -2,0l-1 0 0 0 0 0 0 0 0 0 0 0c0,0 0,0 0,0l-1 0 -1 0c-1,0 -1,0 -2,0 -1,0 -2,-1 -3,-1 -2,-1 -4,-2 -6,-4 -2,-2 -3,-4 -4,-6 0,-1 -1,-2 -1,-4 0,-1 0,-1 0,-2l0 -1 0 -1 0 -1 0 -1c0,-1 0,-1 0,-2 0,-1 1,-2 1,-3 1,-2 3,-4 5,-6 4,-3 9,-4 14,-4 5,1 9,3 12,7z"/>
 </g>
</svg>
