<?xml version="1.0" encoding="UTF-8"?>
<!DOCTYPE svg PUBLIC "-//W3C//DTD SVG 1.1//EN" "http://www.w3.org/Graphics/SVG/1.1/DTD/svg11.dtd">
<!-- Creator: CorelDRAW X6 -->
<svg xmlns="http://www.w3.org/2000/svg" xml:space="preserve" width="30.8701mm" height="33.7391mm" version="1.1" style="shape-rendering:geometricPrecision; text-rendering:geometricPrecision; image-rendering:optimizeQuality; fill-rule:evenodd; clip-rule:evenodd"
viewBox="0 0 276 302"
 xmlns:xlink="http://www.w3.org/1999/xlink">
 <defs>
  <style type="text/css">
   <![CDATA[
    .fil0 {fill:#373435}
   ]]>
  </style>
 </defs>
 <g id="Layer_x0020_1">
  <metadata id="CorelCorpID_0Corel-Layer"/>
  <path class="fil0" d="M69 77l0 0c0,0 0,0 0,0zm83 0l0 0c0,0 0,0 0,0zm111 28c-3,2 -5,3 -7,4l-7 4c-5,3 -9,5 -14,8 -2,2 -5,3 -7,5 0,-16 -1,-32 -1,-47 0,-2 0,-3 0,-5 0,-2 0,-4 0,-6 0,-4 -1,-8 -1,-11 -1,-8 -4,-15 -8,-22 -4,-7 -11,-14 -19,-18 -4,-2 -8,-3 -12,-4 -2,0 -4,-1 -6,-1 -1,0 -2,0 -3,0 -1,0 -1,0 -1,0l-2 0c-7,0 -16,1 -24,5 -4,2 -8,4 -11,7 -3,2 -5,5 -8,8 -4,-6 -10,-11 -17,-14 -4,-2 -8,-3 -12,-4 -2,0 -4,-1 -6,-1 -1,0 -2,0 -3,0 -1,0 -2,0 -3,0 -7,0 -16,1 -24,5 -4,2 -8,4 -11,7 -3,3 -7,6 -9,10 0,-1 -1,-2 -1,-3 -4,-7 -10,-13 -18,-19 -8,-5 -16,-9 -25,-12l0 44c8,-6 18,-6 25,1 3,3 6,7 7,11 0,0 0,0 0,0 -1,4 -3,8 -4,12 -1,2 -1,4 -2,6 0,1 -1,2 -1,3l0 2c0,1 0,1 0,2l12 -1c0,1 0,2 0,4 0,3 0,6 0,10 0,6 -1,13 -2,19 -1,13 -3,26 -7,39l38 0c-4,-13 -6,-26 -7,-39 -1,-6 -1,-13 -2,-19 0,-3 0,-6 0,-10 0,-2 0,-3 0,-5 0,0 0,0 0,-1l12 -1c0,0 0,0 0,0 0,0 0,-1 0,-1 0,-1 -1,-1 -1,-2 -1,-1 -1,-3 -1,-4 -1,-3 -1,-5 -2,-8 0,-5 0,-11 2,-15 2,-5 4,-8 8,-11 2,-1 4,-2 7,-3 1,0 3,-1 4,-1 1,0 1,0 2,0 1,0 2,0 2,0l2 0c1,0 1,0 2,0 1,0 3,0 4,1 3,1 5,1 7,2 4,2 8,6 10,10 1,2 3,5 3,8 0,1 -1,2 -1,3 -1,4 -2,8 -4,12 -1,2 -1,4 -1,6 0,1 0,2 -1,3l0 2c0,1 0,1 0,2l9 -1c-1,12 -2,24 -3,35 -1,6 -1,12 -2,18 -1,6 -2,12 -3,18l38 0c-1,-6 -2,-12 -3,-18 -1,-6 -2,-12 -2,-18 -1,-12 -2,-24 -3,-36l0 1c0,-1 0,-1 0,-2l10 -1c0,0 0,0 0,0 0,0 0,-1 0,-1 0,-1 0,-1 -1,-2 0,-1 -1,-3 -1,-4 -1,-3 -1,-5 -1,-8 0,-5 1,-11 2,-15 3,-9 11,-14 23,-14l2 0c1,0 1,0 2,0 1,0 3,0 4,1 2,0 5,1 7,2 4,2 8,5 10,10 3,4 4,10 5,15 0,3 1,6 1,9 0,1 0,3 0,4 0,1 0,3 0,4l0 0 0 1c0,21 -1,42 -1,63 -16,11 -32,22 -46,36 -8,8 -15,16 -21,25 -6,9 -12,20 -15,31 -1,3 -1,6 -2,9 0,3 -1,7 0,10 0,6 2,13 5,19 3,6 7,12 12,17 5,5 12,8 19,10 7,2 13,3 20,2 7,0 14,-1 21,-4 7,-3 13,-8 18,-13 5,-5 8,-11 10,-17 2,-6 4,-12 5,-18 1,-6 2,-11 2,-18l-1 -31c0,-15 -1,-30 -1,-44 6,-2 13,-5 19,-7 5,-1 10,-3 14,-4 2,-1 5,-1 7,-1 2,0 5,-1 7,-1l-13 -39zm-61 96l-1 30c0,4 -1,8 -2,12 -1,4 -2,8 -4,12 -2,3 -3,6 -6,9 -2,2 -4,4 -7,5 -3,1 -5,2 -9,2 -4,0 -8,0 -11,-1 -6,-2 -11,-5 -14,-10 -2,-3 -3,-6 -4,-10 0,-2 -1,-3 -1,-5 0,-2 0,-4 0,-6 1,-8 3,-17 8,-25 5,-8 11,-15 18,-22 10,-9 21,-16 33,-23 0,11 -1,22 -1,33z"/>
 </g>
</svg>
