<?xml version="1.0" encoding="UTF-8"?>
<!DOCTYPE svg PUBLIC "-//W3C//DTD SVG 1.1//EN" "http://www.w3.org/Graphics/SVG/1.1/DTD/svg11.dtd">
<!-- Creator: CorelDRAW X6 -->
<svg xmlns="http://www.w3.org/2000/svg" xml:space="preserve" width="33.8342mm" height="25.7999mm" version="1.1" style="shape-rendering:geometricPrecision; text-rendering:geometricPrecision; image-rendering:optimizeQuality; fill-rule:evenodd; clip-rule:evenodd"
viewBox="0 0 198 151"
 xmlns:xlink="http://www.w3.org/1999/xlink">
 <defs>
  <style type="text/css">
   <![CDATA[
    .fil0 {fill:#373435}
   ]]>
  </style>
 </defs>
 <g id="Layer_x0020_1">
  <metadata id="CorelCorpID_0Corel-Layer"/>
  <path class="fil0" d="M196 60c-2,-5 -4,-9 -7,-13 -3,-4 -7,-7 -11,-9 -4,-2 -9,-4 -14,-5 -5,-1 -10,0 -14,1 -4,1 -9,3 -12,5 -7,5 -13,10 -18,17 -2,3 -5,7 -7,10 -1,2 -2,3 -3,5 0,-1 -1,-2 -1,-3 -3,-6 -4,-13 -5,-20 -1,-7 -1,-14 0,-20 1,-7 2,-13 5,-19l-1 0 -16 -9c0,1 -1,2 -1,3l-1 0c0,1 -1,2 -1,3 -3,6 -6,12 -9,17 -4,8 -8,15 -12,23 -4,8 -9,16 -13,24 0,0 0,0 0,-1 -1,-9 -3,-18 -7,-26 -2,-4 -5,-8 -8,-12 -3,-4 -8,-7 -12,-9 -9,-5 -19,-7 -28,-7l1 23c7,-1 13,0 19,2 6,2 10,6 14,12 4,6 6,13 7,20 1,4 1,7 1,11 0,2 0,4 0,6 0,2 0,4 0,6l-1 29 13 -25c8,-16 17,-30 26,-45 2,-4 4,-7 7,-11 0,3 1,6 1,9 2,8 4,16 8,23 2,4 5,8 8,12 0,1 -1,2 -1,3 -1,4 -2,8 -2,12 0,4 -1,8 -1,12 0,4 1,8 1,13 1,8 4,17 8,24l19 -12c-8,-10 -13,-23 -12,-37 0,-1 0,-3 0,-4 2,1 3,2 5,3 4,2 8,4 11,5 4,1 8,3 12,3 2,0 4,1 6,1l2 0 2 0c1,0 2,0 4,0 9,-1 18,-4 26,-11 7,-6 12,-15 13,-25 1,-5 0,-10 -2,-15zm-18 13c0,5 -3,10 -7,14 -4,4 -9,6 -15,7 -1,0 -1,0 -2,0l-2 0c-2,0 -3,0 -5,0 -3,0 -7,0 -10,-1 -6,-1 -12,-4 -17,-9 0,0 0,0 0,0 2,-7 6,-14 10,-20 4,-6 9,-10 15,-13 6,-3 12,-3 17,-1 5,2 9,5 12,10 3,5 5,9 5,14z"/>
 </g>
</svg>
