<?xml version="1.0" encoding="UTF-8"?>
<!DOCTYPE svg PUBLIC "-//W3C//DTD SVG 1.1//EN" "http://www.w3.org/Graphics/SVG/1.1/DTD/svg11.dtd">
<!-- Creator: CorelDRAW X6 -->
<svg xmlns="http://www.w3.org/2000/svg" xml:space="preserve" width="21.3865mm" height="29.9998mm" version="1.1" style="shape-rendering:geometricPrecision; text-rendering:geometricPrecision; image-rendering:optimizeQuality; fill-rule:evenodd; clip-rule:evenodd"
viewBox="0 0 108 151"
 xmlns:xlink="http://www.w3.org/1999/xlink">
 <defs>
  <style type="text/css">
   <![CDATA[
    .fil0 {fill:#ff9b00}
   ]]>
  </style>
 </defs>
 <g id="Layer_x0020_1">
  <metadata id="CorelCorpID_0Corel-Layer"/>
  <path class="fil0" d="M105 131c-3,-6 -7,-12 -12,-16 -3,-2 -5,-4 -8,-6 -2,-6 -3,-12 -3,-18 0,-6 0,-12 0,-18 0,-6 1,-12 1,-18 0,-4 1,-9 1,-13 3,-2 6,-4 9,-6 5,-4 10,-10 12,-16 3,-6 4,-13 2,-20 -3,13 -11,21 -21,27 -10,6 -21,8 -32,8 -11,0 -22,-3 -32,-8 -10,-6 -18,-14 -21,-27 -2,6 -1,13 2,20 3,6 7,12 12,16 3,2 6,4 9,6 1,4 1,8 1,13 0,6 1,12 1,18 0,6 0,12 0,18 0,6 -1,12 -3,18 -3,2 -6,4 -8,6 -5,4 -10,10 -12,16 -3,6 -4,13 -2,20 3,-13 11,-21 21,-27 10,-6 21,-8 32,-8l2 0c1,0 1,0 2,0 1,0 3,0 4,0 3,0 6,1 8,2 5,1 11,3 16,6 10,6 18,14 21,27 2,-6 1,-13 -2,-20zm-38 -40c0,4 -1,7 -1,11 -4,-1 -8,-1 -12,-1 -4,0 -7,0 -10,1 -1,0 -1,0 -2,0 -1,-4 -1,-8 -1,-11 0,-6 0,-12 0,-18 0,-6 1,-12 1,-18 0,-2 0,-4 1,-6 4,1 8,1 12,1 4,0 8,0 12,-1 0,2 0,4 1,6 0,6 1,12 1,18 0,6 0,12 0,18z"/>
 </g>
</svg>
