<?xml version="1.0" encoding="UTF-8"?>
<!DOCTYPE svg PUBLIC "-//W3C//DTD SVG 1.1//EN" "http://www.w3.org/Graphics/SVG/1.1/DTD/svg11.dtd">
<!-- Creator: CorelDRAW X6 -->
<svg xmlns="http://www.w3.org/2000/svg" xml:space="preserve" width="30.1752mm" height="30.0288mm" version="1.1" style="shape-rendering:geometricPrecision; text-rendering:geometricPrecision; image-rendering:optimizeQuality; fill-rule:evenodd; clip-rule:evenodd"
viewBox="0 0 503 500"
 xmlns:xlink="http://www.w3.org/1999/xlink">
 <defs>
  <style type="text/css">
   <![CDATA[
    .fil0 {fill:#373435}
   ]]>
  </style>
 </defs>
 <g id="Layer_x0020_1">
  <metadata id="CorelCorpID_0Corel-Layer"/>
  <path class="fil0" d="M283 93l65 17c-6,8 -12,15 -18,22 -12,15 -25,30 -38,45 -26,29 -52,58 -79,86 -1,1 -1,1 -2,2 -11,-9 -23,-17 -35,-23 -18,-9 -37,-15 -56,-18 -20,-3 -40,-3 -61,2 -10,2 -20,6 -30,10 -5,2 -10,5 -15,8 -2,1 -5,3 -7,4l-4 3 -3 2 41 42 2 -3 1 -2c1,-1 2,-3 3,-4 2,-3 5,-5 7,-7 5,-4 11,-8 18,-11 13,-5 28,-7 43,-6 15,2 30,7 43,14 9,5 17,10 25,17 -4,4 -7,8 -11,11 -14,14 -28,28 -42,41 -15,13 -30,26 -46,37 -16,11 -33,22 -52,31l58 58c8,-19 19,-36 31,-52 11,-16 24,-31 37,-46 13,-15 27,-28 41,-42 3,-3 7,-7 10,-10 5,7 9,13 12,21 6,14 11,28 12,43 3,29 -8,58 -28,73l42 42c15,-17 25,-37 30,-58 5,-21 5,-42 2,-62 -5,-33 -20,-63 -41,-87 1,-1 1,-1 2,-2 28,-27 57,-54 86,-80 15,-13 30,-26 45,-38 7,-6 15,-12 22,-18l18 65 92 -220 -220 93z"/>
 </g>
</svg>
