<?xml version="1.0" encoding="UTF-8"?>
<!DOCTYPE svg PUBLIC "-//W3C//DTD SVG 1.1//EN" "http://www.w3.org/Graphics/SVG/1.1/DTD/svg11.dtd">
<!-- Creator: CorelDRAW X6 -->
<svg xmlns="http://www.w3.org/2000/svg" xml:space="preserve" width="27.3811mm" height="29.1801mm" version="1.1" style="shape-rendering:geometricPrecision; text-rendering:geometricPrecision; image-rendering:optimizeQuality; fill-rule:evenodd; clip-rule:evenodd"
viewBox="0 0 217 232"
 xmlns:xlink="http://www.w3.org/1999/xlink">
 <defs>
  <style type="text/css">
   <![CDATA[
    .fil0 {fill:#ff0000}
   ]]>
  </style>
 </defs>
 <g id="Layer_x0020_1">
  <metadata id="CorelCorpID_0Corel-Layer"/>
  <path class="fil0" d="M114 48l31 7c-3,4 -5,7 -8,11 -6,7 -11,15 -17,22 -12,14 -24,29 -36,42 -5,6 -11,12 -17,18 -7,-7 -13,-13 -19,-20 -8,-9 -16,-19 -23,-29l-23 25c11,6 21,14 31,21 7,6 15,12 22,18 -3,3 -6,6 -9,9 -7,6 -14,13 -21,18 -8,6 -15,11 -24,16l29 27c4,-9 9,-17 14,-25 5,-8 11,-15 17,-23 3,-3 6,-6 8,-10 7,6 14,13 21,20 4,5 8,10 12,15 3,5 7,11 9,18l27 -29c-7,-2 -13,-4 -19,-7 -6,-3 -11,-7 -16,-10 -7,-6 -14,-13 -21,-19 6,-6 11,-12 17,-18 13,-13 26,-27 40,-39 7,-6 14,-13 21,-19 3,-3 7,-6 10,-9l9 31 40 -106 -103 48z"/>
 </g>
</svg>
