<?xml version="1.0" encoding="UTF-8"?>
<!DOCTYPE svg PUBLIC "-//W3C//DTD SVG 1.1//EN" "http://www.w3.org/Graphics/SVG/1.1/DTD/svg11.dtd">
<!-- Creator: CorelDRAW X6 -->
<svg xmlns="http://www.w3.org/2000/svg" xml:space="preserve" width="20.9703mm" height="26.8386mm" version="1.1" style="shape-rendering:geometricPrecision; text-rendering:geometricPrecision; image-rendering:optimizeQuality; fill-rule:evenodd; clip-rule:evenodd"
viewBox="0 0 167 214"
 xmlns:xlink="http://www.w3.org/1999/xlink">
 <defs>
  <style type="text/css">
   <![CDATA[
    .fil0 {fill:#373435}
   ]]>
  </style>
 </defs>
 <g id="Layer_x0020_1">
  <metadata id="CorelCorpID_0Corel-Layer"/>
  <path class="fil0" d="M135 87c-5,-4 -10,-8 -15,-11 8,-4 15,-10 21,-17 15,-16 23,-36 26,-58l-28 0c3,16 -2,33 -12,46 -11,13 -27,20 -43,20 -8,0 -16,-2 -23,-6 -7,-4 -14,-9 -19,-15 -10,-12 -15,-29 -14,-45l-28 0c1,22 10,44 25,59 6,7 14,12 22,16 -5,3 -10,7 -14,11 -14,13 -22,32 -23,51 0,10 1,19 5,29 4,9 9,18 16,25 7,7 15,13 24,17 9,4 19,6 29,6l0 0c10,0 20,-2 29,-6 9,-4 17,-10 24,-17 7,-7 12,-16 16,-25 4,-9 5,-19 5,-29 0,-19 -9,-38 -23,-51zm-15 87c-10,9 -23,15 -36,14 -7,0 -13,-1 -19,-4 -6,-2 -12,-6 -17,-11 -10,-9 -16,-22 -17,-36 -1,-14 4,-28 14,-38 5,-5 11,-9 17,-12 2,-1 4,-1 5,-2 5,-2 10,-3 15,-3 6,0 11,1 16,3 2,1 3,1 5,2 7,3 12,7 17,12 5,5 9,11 11,18 2,7 3,14 3,20 -1,14 -7,27 -16,36z"/>
 </g>
</svg>
