<?xml version="1.0" encoding="UTF-8"?>
<!DOCTYPE svg PUBLIC "-//W3C//DTD SVG 1.1//EN" "http://www.w3.org/Graphics/SVG/1.1/DTD/svg11.dtd">
<!-- Creator: CorelDRAW X6 -->
<svg xmlns="http://www.w3.org/2000/svg" xml:space="preserve" width="24.8299mm" height="34.1057mm" version="1.1" style="shape-rendering:geometricPrecision; text-rendering:geometricPrecision; image-rendering:optimizeQuality; fill-rule:evenodd; clip-rule:evenodd"
viewBox="0 0 124 171"
 xmlns:xlink="http://www.w3.org/1999/xlink">
 <defs>
  <style type="text/css">
   <![CDATA[
    .fil0 {fill:#373435}
   ]]>
  </style>
 </defs>
 <g id="Layer_x0020_1">
  <metadata id="CorelCorpID_0Corel-Layer"/>
  <path class="fil0" d="M90 117c1,-3 3,-6 5,-8 2,-3 4,-5 6,-8 4,-6 8,-12 12,-18 4,-6 7,-13 9,-21 2,-8 3,-16 1,-24 -1,-8 -5,-16 -11,-23 -3,-3 -7,-6 -11,-8 -4,-2 -8,-3 -12,-4 -2,0 -4,-1 -6,-1l-2 0c-1,0 -1,0 -1,0 -1,0 -2,0 -3,0 -4,0 -8,1 -13,3 -4,1 -8,4 -11,7 -3,3 -6,6 -8,10 -4,8 -6,16 -5,24 0,4 1,8 2,12 1,4 3,7 4,11 2,5 5,9 7,13 -5,-4 -12,-6 -18,-7 -4,0 -9,0 -13,2 -4,2 -8,4 -11,7 -3,3 -6,7 -8,11 -1,2 -2,4 -2,6 0,1 0,2 -1,3l0 2 0 1 0 0c0,4 1,9 3,13 2,4 4,8 8,11 3,3 7,5 11,7 4,2 9,2 13,2 9,0 17,-4 23,-10 6,-6 9,-14 9,-23 0,-4 -1,-8 -2,-12 0,-1 0,-1 0,-2 -1,-4 -2,-7 -3,-10 -2,-7 -5,-13 -7,-20 -1,-3 -2,-6 -2,-9 0,-3 0,-6 0,-9 1,-6 3,-12 6,-17 3,-5 7,-8 12,-9 3,-1 5,-1 8,-1 1,0 1,0 2,0 0,0 1,0 1,0l1 0c1,0 3,0 4,1 5,1 10,4 13,7 3,4 6,9 7,15 1,3 1,6 1,9 0,1 0,1 0,2l0 1 0 1c0,1 0,1 0,2 0,1 0,1 0,2 -1,6 -4,12 -7,18 -3,6 -6,12 -10,18 -2,3 -4,6 -5,9 -2,3 -3,7 -5,10 -3,7 -4,15 -4,22 0,8 2,16 6,22 2,3 5,6 8,9 3,2 7,4 11,5 8,2 15,-1 21,-5 -7,3 -14,3 -20,1 -6,-2 -11,-7 -13,-13 -3,-6 -3,-12 -3,-18 1,-6 3,-12 6,-18zm-36 -19c1,3 2,5 2,8 0,3 -1,6 -2,8 -1,3 -3,5 -5,7 -4,4 -10,6 -15,5 -5,0 -10,-3 -13,-7 -3,-4 -5,-8 -5,-13l0 -1 0 -1c0,-1 0,-1 0,-2 0,-1 1,-2 1,-4 1,-2 2,-4 4,-6 3,-4 8,-6 13,-7 5,0 11,1 15,5 2,2 4,4 5,7z"/>
 </g>
</svg>
