<?xml version="1.0" encoding="UTF-8"?>
<!DOCTYPE svg PUBLIC "-//W3C//DTD SVG 1.1//EN" "http://www.w3.org/Graphics/SVG/1.1/DTD/svg11.dtd">
<!-- Creator: CorelDRAW X6 -->
<svg xmlns="http://www.w3.org/2000/svg" xml:space="preserve" width="37.112mm" height="28.7085mm" version="1.1" style="shape-rendering:geometricPrecision; text-rendering:geometricPrecision; image-rendering:optimizeQuality; fill-rule:evenodd; clip-rule:evenodd"
viewBox="0 0 540 418"
 xmlns:xlink="http://www.w3.org/1999/xlink">
 <defs>
  <style type="text/css">
   <![CDATA[
    .fil0 {fill:#3362ff}
   ]]>
  </style>
 </defs>
 <g id="Layer_x0020_1">
  <metadata id="CorelCorpID_0Corel-Layer"/>
  <path class="fil0" d="M113 125l0 0c0,0 0,0 0,0zm403 153c-36,28 -80,43 -124,49 13,7 31,13 49,16 -1,1 -2,3 -3,4 -7,7 -15,13 -24,16 -9,3 -18,3 -28,1 -9,-2 -19,-7 -26,-14 -8,-8 -14,-16 -18,-27 -4,-10 -6,-22 -6,-35 0,-25 6,-52 13,-79 4,-14 7,-27 11,-42 3,-15 5,-30 6,-46 0,-16 -2,-31 -7,-47 -3,-8 -6,-16 -11,-23 -5,-7 -11,-14 -19,-20 -8,-5 -16,-9 -25,-11 -4,-1 -9,-2 -13,-2 -2,0 -5,0 -6,-1 -2,0 -4,0 -6,0 -9,0 -18,1 -27,3 -9,3 -18,7 -26,13 -6,4 -11,9 -15,15 -7,-8 -15,-15 -24,-20 -6,-3 -13,-5 -20,-7 -3,-1 -7,-1 -10,-1 -2,0 -3,0 -5,0 -2,0 -3,0 -5,0 -12,0 -26,2 -39,8 -7,3 -13,7 -19,11 -6,5 -11,10 -15,16 -1,-1 -2,-3 -2,-4 -7,-11 -17,-22 -29,-30 -12,-8 -26,-14 -41,-20l0 72c13,-11 29,-10 41,1 5,5 9,11 12,18 0,0 0,0 0,0 -2,6 -4,13 -6,19 -1,3 -2,7 -3,10 0,2 -1,3 -1,5l-1 3c0,1 0,2 -1,4l19 -2c0,2 0,4 0,6 0,5 0,11 -1,16 -1,11 -1,21 -2,32 -2,21 -6,42 -11,63l62 0c-6,-21 -9,-42 -11,-63 -1,-11 -2,-21 -2,-32 0,-5 0,-11 -1,-16 0,-3 0,-5 0,-8 0,0 0,-1 0,-1l19 -2c0,0 0,0 0,-1 0,0 0,-1 -1,-1 0,-1 -1,-2 -1,-3 -1,-2 -2,-4 -2,-6 -1,-4 -2,-9 -2,-13 -1,-9 0,-17 3,-25 3,-7 7,-13 14,-17 3,-2 7,-3 11,-5 2,0 4,-1 6,-1 1,0 2,0 3,0 1,0 3,0 4,0l3 0c1,0 2,0 3,0 2,0 4,1 6,1 4,1 8,2 11,4 7,4 12,9 17,16 1,2 2,5 3,7 -3,8 -6,16 -8,24 -1,4 -2,9 -3,13 0,2 -1,4 -1,7l-1 4c0,1 0,2 0,4l19 -2c-1,19 -2,38 -4,57 -1,10 -2,20 -4,30 -1,10 -3,20 -5,30l62 0c-2,-10 -4,-20 -5,-30 -1,-10 -3,-20 -4,-30 -2,-20 -4,-39 -5,-59l0 2c0,-1 0,-2 0,-3l19 -2c0,0 -1,-1 -1,-1 0,-1 0,-1 -1,-2 0,-1 -1,-3 -1,-4 -1,-3 -1,-5 -2,-8 -1,-6 -1,-11 -1,-16 1,-11 3,-20 9,-26 3,-3 6,-6 10,-8 4,-2 9,-4 15,-4 11,-1 22,0 30,5 8,5 14,14 18,25 4,11 5,23 5,36 0,13 -2,25 -5,38 -3,13 -7,26 -11,40 -8,27 -17,56 -18,87 -1,16 0,32 5,49 5,16 14,32 25,45 12,13 27,24 45,31 18,6 37,8 56,4 19,-4 36,-13 50,-24 7,-6 14,-12 20,-19 12,15 28,27 43,37 -17,-41 -29,-87 -24,-131z"/>
 </g>
</svg>
