<?xml version="1.0" encoding="UTF-8"?>
<!DOCTYPE svg PUBLIC "-//W3C//DTD SVG 1.1//EN" "http://www.w3.org/Graphics/SVG/1.1/DTD/svg11.dtd">
<!-- Creator: CorelDRAW X6 -->
<svg xmlns="http://www.w3.org/2000/svg" xml:space="preserve" width="31.0289mm" height="30.0726mm" version="1.1" style="shape-rendering:geometricPrecision; text-rendering:geometricPrecision; image-rendering:optimizeQuality; fill-rule:evenodd; clip-rule:evenodd"
viewBox="0 0 229 221"
 xmlns:xlink="http://www.w3.org/1999/xlink">
 <defs>
  <style type="text/css">
   <![CDATA[
    .fil0 {fill:#21c600}
   ]]>
  </style>
 </defs>
 <g id="Layer_x0020_1">
  <metadata id="CorelCorpID_0Corel-Layer"/>
  <path class="fil0" d="M219 91c-4,-5 -8,-10 -14,-13 -6,-3 -12,-5 -18,-6 -13,-1 -24,2 -34,7 -8,4 -15,9 -21,15 -1,-8 -1,-16 -1,-24 0,-10 1,-19 2,-29 1,-5 1,-9 2,-14 1,-5 2,-9 3,-14l-1 0 -20 -13c-5,10 -11,19 -16,28 -6,9 -11,18 -17,27 -6,9 -12,18 -18,27 -3,5 -6,10 -10,14 -2,-4 -3,-8 -5,-12 -3,-9 -6,-17 -9,-26 -3,-9 -5,-18 -7,-26 -1,-4 -2,-9 -2,-13 0,-4 0,-8 0,-11l-34 0c0,0 0,0 0,1 0,1 0,1 0,1 0,1 0,2 0,2 0,2 1,3 1,4 1,3 2,5 2,8 2,5 4,10 6,14 4,9 8,18 12,26l12 26c4,8 8,17 12,25l6 13 8 -12c6,-9 12,-18 18,-27 6,-9 12,-18 18,-26 4,-6 8,-11 12,-17 0,7 0,15 0,22 1,10 2,21 4,31 1,3 1,6 2,9 0,0 0,0 0,0 -2,2 -3,4 -5,7l-1 2 -1 1 0 1c-1,1 -1,3 -2,4 -5,10 -7,21 -9,32 -1,11 -1,22 1,33 2,11 6,22 12,32l23 -17c-11,-12 -17,-30 -17,-47 0,-9 1,-18 5,-26 0,0 0,0 0,-1 0,0 0,0 0,1 4,10 11,20 20,27 5,4 10,7 15,9 6,2 11,4 17,4 6,0 13,0 19,-2 6,-2 12,-5 17,-9 10,-8 16,-20 18,-33 1,-13 -2,-26 -9,-36zm-15 34c-1,7 -4,14 -9,18 -5,5 -12,7 -19,7 -8,0 -16,-1 -23,-6 -7,-4 -12,-12 -15,-20 -2,-4 -3,-8 -4,-12 1,-1 2,-3 3,-4 6,-7 14,-12 22,-15 8,-3 17,-4 24,-2 7,2 12,6 16,12 4,6 6,13 5,20z"/>
 </g>
</svg>
