<?xml version="1.0" encoding="UTF-8"?>
<!DOCTYPE svg PUBLIC "-//W3C//DTD SVG 1.1//EN" "http://www.w3.org/Graphics/SVG/1.1/DTD/svg11.dtd">
<!-- Creator: CorelDRAW X6 -->
<svg xmlns="http://www.w3.org/2000/svg" xml:space="preserve" width="25.6079mm" height="23.6006mm" version="1.1" style="shape-rendering:geometricPrecision; text-rendering:geometricPrecision; image-rendering:optimizeQuality; fill-rule:evenodd; clip-rule:evenodd"
viewBox="0 0 364 335"
 xmlns:xlink="http://www.w3.org/1999/xlink">
 <defs>
  <style type="text/css">
   <![CDATA[
    .fil0 {fill:#373435}
   ]]>
  </style>
 </defs>
 <g id="Layer_x0020_1">
  <metadata id="CorelCorpID_0Corel-Layer"/>
  <path class="fil0" d="M350 41c-12,-18 -31,-32 -52,-37 -11,-3 -22,-4 -32,-3 -11,0 -22,3 -32,7 -10,4 -20,10 -29,18 -8,7 -15,16 -20,25 -2,3 -3,5 -4,8 -1,-2 -2,-4 -3,-6 -5,-9 -12,-18 -20,-25 -8,-8 -18,-14 -28,-18 -10,-4 -21,-7 -32,-7 -5,0 -11,0 -15,0 -3,0 -6,1 -9,1 -3,0 -5,1 -8,2 -22,6 -40,20 -51,38 -11,18 -16,38 -14,58 1,10 4,19 8,27 4,8 10,16 16,22 -5,-17 -6,-33 -3,-48 3,-15 11,-28 20,-37 10,-10 21,-15 33,-17 1,0 3,0 4,0 1,0 3,0 4,0 4,0 7,0 10,1 6,1 12,3 18,5 11,5 20,13 27,24 8,11 13,25 18,40 1,3 2,7 3,10 0,7 1,13 1,20 1,21 0,42 0,63 0,11 -1,21 -1,32 0,11 -1,21 -2,32 -2,21 -4,42 -7,63l65 0c-3,-21 -5,-42 -7,-63 -1,-11 -1,-21 -2,-32 -1,-11 -1,-21 -1,-32 -1,-21 -1,-42 0,-63 1,-11 1,-21 2,-32 4,-15 10,-28 18,-39 8,-11 17,-19 28,-24 5,-2 12,-4 18,-5 7,-1 13,-1 19,0 12,2 24,7 34,17 10,9 17,22 19,37 3,15 1,32 -5,49 13,-12 23,-29 26,-48 3,-20 -1,-41 -13,-59z"/>
 </g>
</svg>
