<?xml version="1.0" encoding="UTF-8"?>
<!DOCTYPE svg PUBLIC "-//W3C//DTD SVG 1.1//EN" "http://www.w3.org/Graphics/SVG/1.1/DTD/svg11.dtd">
<!-- Creator: CorelDRAW X6 -->
<svg xmlns="http://www.w3.org/2000/svg" xml:space="preserve" width="25.4318mm" height="31.1576mm" version="1.1" style="shape-rendering:geometricPrecision; text-rendering:geometricPrecision; image-rendering:optimizeQuality; fill-rule:evenodd; clip-rule:evenodd"
viewBox="0 0 191 234"
 xmlns:xlink="http://www.w3.org/1999/xlink">
 <defs>
  <style type="text/css">
   <![CDATA[
    .fil0 {fill:#373435}
   ]]>
  </style>
 </defs>
 <g id="Layer_x0020_1">
  <metadata id="CorelCorpID_0Corel-Layer"/>
  <path class="fil0" d="M175 146c-4,-7 -9,-12 -15,-17 -12,-9 -28,-13 -43,-11 -4,0 -7,1 -11,3 6,-7 11,-14 17,-20 6,-7 13,-14 19,-20 4,-3 7,-6 11,-9l10 25 28 -96 -87 49 26 4c-2,4 -4,9 -7,13 -5,8 -10,16 -15,23 -5,7 -11,15 -17,22 -6,7 -11,14 -17,21 -12,14 -24,28 -36,42 -6,7 -12,14 -19,20 -6,7 -13,13 -20,20l25 20c5,-8 10,-16 15,-24 5,-8 10,-15 16,-23 4,-5 8,-11 11,-16 0,3 0,6 0,9 1,7 3,15 6,21 3,7 8,13 14,18 6,5 13,9 20,11 7,2 15,3 23,3 8,-1 15,-3 22,-7 7,-4 13,-9 18,-15l0 0c5,-6 9,-13 11,-21 2,-8 3,-16 2,-23 -1,-8 -4,-15 -8,-22zm-23 51c-3,4 -7,7 -11,9 -4,2 -9,4 -14,5 -10,2 -20,-1 -28,-7 -4,-3 -8,-7 -10,-11 -3,-4 -5,-9 -5,-14 -1,-5 0,-11 1,-16 1,-5 4,-10 7,-14 3,-4 7,-8 12,-10 5,-2 10,-4 15,-4 10,-1 21,3 28,10 8,7 12,16 13,26 1,10 -2,19 -8,27z"/>
 </g>
</svg>
