<?xml version="1.0" encoding="UTF-8"?>
<!DOCTYPE svg PUBLIC "-//W3C//DTD SVG 1.1//EN" "http://www.w3.org/Graphics/SVG/1.1/DTD/svg11.dtd">
<!-- Creator: CorelDRAW X6 -->
<svg xmlns="http://www.w3.org/2000/svg" xml:space="preserve" width="31.4045mm" height="31.5222mm" version="1.1" style="shape-rendering:geometricPrecision; text-rendering:geometricPrecision; image-rendering:optimizeQuality; fill-rule:evenodd; clip-rule:evenodd"
viewBox="0 0 172 172"
 xmlns:xlink="http://www.w3.org/1999/xlink">
 <defs>
  <style type="text/css">
   <![CDATA[
    .fil0 {fill:#373435}
   ]]>
  </style>
 </defs>
 <g id="Layer_x0020_1">
  <metadata id="CorelCorpID_0Corel-Layer"/>
  <path class="fil0" d="M42 46l0 0c0,0 0,0 0,0zm122 11c-3,1 -5,2 -7,3l-7 3c-4,2 -9,5 -13,7 0,0 0,0 -1,0 0,-1 0,-1 0,-2 -1,-4 -1,-7 -1,-11l0 -5 0 -5c0,-1 0,-2 0,-3 0,-1 0,-2 0,-3 0,-2 0,-4 -1,-7 -1,-4 -2,-9 -5,-13 -2,-4 -6,-8 -11,-11 -5,-2 -10,-3 -14,-4 -5,0 -10,0 -15,3 -4,2 -8,5 -11,9 -2,-3 -6,-6 -9,-8 -2,-1 -5,-2 -7,-2 -1,0 -2,0 -4,-1 -1,0 -1,0 -2,0 -1,0 -1,0 -2,0 -4,0 -10,1 -14,3 -2,1 -5,3 -7,4 -2,2 -4,4 -5,5 0,0 0,-1 -1,-1 -3,-4 -6,-8 -11,-11 -4,-3 -10,-5 -15,-7l0 27c5,-4 10,-4 15,0 2,2 3,4 4,6 0,0 0,0 0,0 -1,2 -2,5 -2,7 0,1 -1,2 -1,4 0,1 0,1 0,2l0 1c0,0 0,1 0,1l7 -1c0,1 0,1 0,2 0,2 0,4 0,6 0,4 0,8 -1,12 -1,8 -2,15 -4,23l24 0c-2,-8 -3,-15 -4,-23 0,-4 -1,-8 -1,-12 0,-2 0,-4 0,-6 0,-1 0,-2 0,-3 0,0 0,0 0,0l7 -1c0,0 0,0 0,0 0,0 0,0 0,0 0,0 0,-1 -1,-1 0,-1 -1,-2 -1,-2 0,-2 -1,-3 -1,-5 0,-3 0,-6 1,-9 1,-3 3,-5 5,-6 1,-1 2,-1 4,-2 1,0 1,0 2,0 0,0 1,0 1,0 0,0 1,0 1,0l1 0c0,0 1,0 1,0 1,0 2,0 2,0 1,0 3,1 4,1 3,1 5,3 6,6 1,1 1,3 2,4 0,1 0,1 -1,2 -1,2 -1,5 -2,7 0,1 0,2 -1,4l0 2c0,1 0,1 0,2l5 0c0,7 -1,14 -2,21 0,4 -1,7 -1,11 -1,4 -1,7 -2,11l24 0c-1,-4 -1,-7 -2,-11 -1,-4 -1,-7 -1,-11 -1,-7 -1,-14 -2,-22l0 1c0,0 0,-1 0,-1l5 0c0,0 0,-1 0,-1l0 -1c0,-1 0,-2 0,-2 0,-2 0,-3 0,-5 0,-3 1,-6 2,-9 1,-2 3,-4 5,-6 2,-1 5,-2 8,-2 3,0 6,0 9,1 2,1 5,3 6,6 2,3 3,6 3,9 0,2 0,3 1,5 0,1 0,2 0,3 0,1 0,2 0,2l0 0 0 0 0 5 0 5c0,4 -1,7 -1,11 -1,4 -1,7 -2,11 0,1 -1,2 -1,3 -2,1 -4,2 -5,4 -8,6 -16,12 -22,20 -3,4 -6,8 -9,13 -3,5 -5,10 -6,15 -1,3 -1,5 -1,8 0,2 0,3 0,5 0,1 1,3 1,4 2,5 5,11 10,15 5,4 11,6 16,6 1,0 3,0 4,0l1 0 1 0c1,0 1,0 2,0 3,0 6,-1 9,-3 6,-3 10,-8 13,-12 3,-5 5,-10 6,-15 0,-1 1,-3 1,-4 0,-1 0,-1 0,-2l0 -1c0,0 0,0 0,-1 0,1 0,0 0,0l0 0 1 -7 1 -7 1 -4c0,-1 0,-1 0,-2 0,-1 0,-1 0,-3l-25 3c0,0 0,1 1,1 0,0 0,1 0,1 0,1 1,2 1,3 0,2 1,5 1,7 0,2 1,5 1,7l0 0 0 0 0 0c0,0 0,0 0,0 0,0 0,0 0,0l0 1 0 1c0,1 0,2 0,3 0,8 -3,16 -9,20 -3,2 -7,2 -11,2 -4,0 -7,-2 -10,-4 -3,-2 -4,-5 -5,-9 0,-1 0,-2 -1,-3 0,-1 0,-2 0,-2 0,-2 0,-4 1,-6 2,-8 7,-15 13,-21 6,-6 13,-11 21,-16 8,-5 16,-8 25,-12 4,-2 9,-3 13,-4 2,-1 4,-1 7,-2 2,-1 4,-1 6,-2l-8 -25z"/>
 </g>
</svg>
