<?xml version="1.0" encoding="UTF-8"?>
<!DOCTYPE svg PUBLIC "-//W3C//DTD SVG 1.1//EN" "http://www.w3.org/Graphics/SVG/1.1/DTD/svg11.dtd">
<!-- Creator: CorelDRAW X6 -->
<svg xmlns="http://www.w3.org/2000/svg" xml:space="preserve" width="41.6826mm" height="25.2039mm" version="1.1" style="shape-rendering:geometricPrecision; text-rendering:geometricPrecision; image-rendering:optimizeQuality; fill-rule:evenodd; clip-rule:evenodd"
viewBox="0 0 727 440"
 xmlns:xlink="http://www.w3.org/1999/xlink">
 <defs>
  <style type="text/css">
   <![CDATA[
    .fil0 {fill:#373435}
   ]]>
  </style>
 </defs>
 <g id="Layer_x0020_1">
  <metadata id="CorelCorpID_0Corel-Layer"/>
  <path class="fil0" d="M641 311l0 0c0,0 0,0 0,0zm-165 0l0 0c0,0 0,0 0,0zm165 0c0,0 0,1 1,1 0,0 1,1 1,2 1,1 1,2 2,4 1,2 2,5 3,8 2,5 2,11 3,16 1,11 0,21 -3,30 -3,9 -9,16 -16,21 -4,2 -8,4 -13,6 -2,1 -5,1 -8,1 -1,0 -2,0 -4,0 -1,0 -3,0 -5,0l-4 0c-1,0 -3,0 -4,0 -3,0 -5,-1 -8,-1 -5,-1 -10,-2 -14,-5 -8,-4 -15,-11 -20,-19 -3,-5 -5,-10 -6,-15 1,-2 2,-4 2,-6 3,-8 5,-15 8,-23 1,-4 2,-8 3,-12 1,-2 1,-4 2,-6l1 -3c0,-1 1,-2 1,-4l-20 2c1,-16 3,-31 5,-47 1,-8 3,-16 4,-25 2,-8 4,-16 6,-25l-75 0c2,8 4,16 6,25 2,8 3,16 4,25 2,16 4,33 5,49l0 -2c0,1 0,3 0,4l-21 2c0,0 0,1 1,1 0,0 1,1 1,2 1,1 1,2 2,4 1,2 2,5 3,8 2,5 2,11 3,16 1,11 0,21 -3,30 -3,9 -9,16 -16,21 -4,2 -8,4 -13,6 -2,1 -5,1 -8,1 -1,0 -2,0 -4,0 -1,0 -3,0 -5,0l-4 0c-1,0 -3,0 -4,0 -3,0 -5,-1 -8,-1 -5,-1 -10,-2 -14,-5 -8,-4 -15,-11 -20,-19 -2,-3 -3,-7 -5,-10 4,-9 7,-19 9,-28 1,-5 2,-10 3,-15 1,-3 1,-5 1,-8l1 -4c0,-2 0,-3 1,-5l-21 2c1,-16 3,-32 5,-47 1,-8 3,-16 4,-25 2,-8 4,-16 6,-25l-75 0c2,8 4,16 6,25 2,8 3,16 4,25 2,16 4,33 5,49l0 -2c0,1 0,3 0,4l-21 2c0,0 1,1 1,1 0,1 1,1 1,2 1,1 1,3 1,4 1,3 1,6 2,9 1,6 2,13 1,19 0,12 -3,24 -9,32 -6,8 -15,14 -27,16 -3,1 -7,1 -9,1l-5 0c-2,0 -3,0 -5,0 -6,-1 -12,-2 -17,-4 -11,-5 -19,-13 -25,-25 -6,-11 -9,-25 -10,-39 -1,-14 0,-28 4,-42 1,-3 2,-7 3,-10l4 -11 9 -22c12,-30 26,-61 33,-96 3,-18 5,-37 2,-57 -2,-10 -5,-20 -9,-30 -5,-10 -10,-18 -18,-27 -15,-17 -36,-27 -57,-31 -22,-4 -44,-2 -64,6 -20,7 -37,18 -52,31 -7,6 -13,12 -20,19 -13,-18 -30,-34 -46,-46 16,49 27,102 16,154 44,-29 96,-43 147,-46 -15,-9 -36,-19 -57,-23 10,-13 22,-24 35,-30 10,-5 21,-7 31,-6 10,1 21,5 28,12 8,7 15,17 18,29 3,12 3,25 1,40 -2,14 -6,29 -10,44 -5,15 -10,30 -16,45l-9 23 -4 12c-2,4 -3,9 -4,13 -5,18 -6,36 -5,55 1,18 5,37 15,55 5,9 10,17 17,25 7,7 16,14 25,18 9,5 19,8 29,9 2,0 5,1 7,1l4 0 3 0c5,0 10,0 15,0 20,-1 42,-8 60,-23 5,-4 10,-9 14,-14 8,10 18,19 30,25 8,4 16,6 23,8 4,1 8,1 12,2 2,0 4,0 6,0 2,0 3,0 6,0 15,0 32,-2 47,-9 8,-3 15,-8 22,-14 6,-5 11,-10 15,-16 8,11 19,22 33,28 8,4 15,6 23,8 4,1 8,1 12,2 2,0 4,0 6,0 2,0 3,0 6,0 15,0 32,-2 47,-9 8,-3 15,-8 22,-14 7,-6 13,-12 18,-19 10,-14 17,-29 23,-44 3,-8 5,-15 8,-23 1,-4 2,-8 3,-12 1,-2 1,-4 2,-6l1 -3c0,-1 1,-2 1,-4l-85 8z"/>
 </g>
</svg>
