<?xml version="1.0" encoding="UTF-8"?>
<!DOCTYPE svg PUBLIC "-//W3C//DTD SVG 1.1//EN" "http://www.w3.org/Graphics/SVG/1.1/DTD/svg11.dtd">
<!-- Creator: CorelDRAW X6 -->
<svg xmlns="http://www.w3.org/2000/svg" xml:space="preserve" width="52.8762mm" height="64.8669mm" version="1.1" style="shape-rendering:geometricPrecision; text-rendering:geometricPrecision; image-rendering:optimizeQuality; fill-rule:evenodd; clip-rule:evenodd"
viewBox="0 0 2353 2886"
 xmlns:xlink="http://www.w3.org/1999/xlink">
 <defs>
  <style type="text/css">
   <![CDATA[
    .str0 {stroke:#373435;stroke-width:31.3945}
    .fil0 {fill:#373435;fill-rule:nonzero}
   ]]>
  </style>
 </defs>
 <g id="fertige_x0020_Planeten">
  <metadata id="CorelCorpID_0Corel-Layer"/>
  <g id="_620998208">
   <path class="fil0 str0" d="M1176 16c-641,0 -1160,520 -1160,1160 0,641 520,1160 1160,1160 641,0 1161,-520 1161,-1160 0,-641 -520,-1160 -1161,-1160zm0 2224l0 0c-587,0 -1064,-476 -1064,-1064 0,-588 476,-1064 1064,-1064 587,0 1064,476 1064,1064 0,587 -477,1064 -1064,1064z"/>
   <path class="fil0 str0" d="M1321 1176c0,80 -65,145 -145,145 -80,0 -145,-65 -145,-145 0,-80 65,-145 145,-145 80,0 145,65 145,145z"/>
  </g>  
 </g>
</svg>
