<?xml version="1.0" encoding="UTF-8"?>
<!DOCTYPE svg PUBLIC "-//W3C//DTD SVG 1.1//EN" "http://www.w3.org/Graphics/SVG/1.1/DTD/svg11.dtd">
<!-- Creator: CorelDRAW X6 -->
<svg xmlns="http://www.w3.org/2000/svg" xml:space="preserve" width="61.841mm" height="55.0871mm" version="1.1" style="shape-rendering:geometricPrecision; text-rendering:geometricPrecision; image-rendering:optimizeQuality; fill-rule:evenodd; clip-rule:evenodd"
viewBox="0 0 2008 1789"
 xmlns:xlink="http://www.w3.org/1999/xlink">
 <defs>
  <style type="text/css">
   <![CDATA[
    .str0 {stroke:#373435;stroke-width:22.9098}
    .fil0 {fill:#373435;fill-rule:nonzero}
   ]]>
  </style>
 </defs>
 <g id="fertige_x0020_Planeten">
  <metadata id="CorelCorpID_0Corel-Layer"/>  
  <path class="fil0 str0" d="M1996 90l0 -74c-193,58 -337,230 -352,438l-107 0 0 -388 -71 0 0 388 -107 0c-15,-208 -158,-381 -351,-438l0 74c164,58 282,215 282,399 0,184 -118,341 -282,399l0 74c193,-58 337,-230 352,-438l107 0 0 391c-100,17 -176,104 -176,209 0,117 95,212 212,212 117,0 212,-95 212,-212 0,-105 -76,-192 -176,-209l0 -391 107 0c15,208 158,381 352,438l0 -74c-164,-58 -282,-215 -282,-399 0,-184 118,-341 282,-399zm-353 1034l0 0c0,78 -63,141 -141,141 -78,0 -141,-63 -141,-141 0,-78 63,-141 141,-141 78,0 141,63 141,141z"/>  
 </g>
</svg>
