<?xml version="1.0" encoding="UTF-8"?>
<!DOCTYPE svg PUBLIC "-//W3C//DTD SVG 1.1//EN" "http://www.w3.org/Graphics/SVG/1.1/DTD/svg11.dtd">
<!-- Creator: CorelDRAW X6 -->
<svg xmlns="http://www.w3.org/2000/svg" xml:space="preserve" width="61.841mm" height="55.0871mm" version="1.1" style="shape-rendering:geometricPrecision; text-rendering:geometricPrecision; image-rendering:optimizeQuality; fill-rule:evenodd; clip-rule:evenodd"
viewBox="0 0 2008 1789"
 xmlns:xlink="http://www.w3.org/1999/xlink">
 <defs>
  <style type="text/css">
   <![CDATA[
    .str0 {stroke:#373435;stroke-width:22.9098}
    .fil0 {fill:#373435;fill-rule:nonzero}
   ]]>
  </style>
 </defs>
 <g id="fertige_x0020_Planeten">
  <metadata id="CorelCorpID_0Corel-Layer"/>
  <g id="_623953312">
   <path class="fil0 str0" d="M417 983c0,29 -24,53 -53,53 -29,0 -53,-24 -53,-53 0,-29 24,-53 53,-53 29,0 53,24 53,53z"/>
   <path class="fil0 str0" d="M400 632l0 -361 214 214 50 -50 -250 -250 -50 -50 -299 299 50 50 214 -214 0 361c-178,18 -318,168 -318,351 0,195 158,353 353,353 195,0 353,-158 353,-353 0,-183 -139,-333 -318,-351zm-35 633l0 0c-156,0 -282,-126 -282,-282 0,-156 126,-282 282,-282 156,0 282,126 282,282 0,156 -126,282 -282,282z"/>
  </g>
  <path class="fil0 str0" d="M1996 90l0 -74c-193,58 -337,230 -352,438l-107 0 0 -388 -71 0 0 388 -107 0c-15,-208 -158,-381 -351,-438l0 74c164,58 282,215 282,399 0,184 -118,341 -282,399l0 74c193,-58 337,-230 352,-438l107 0 0 391c-100,17 -176,104 -176,209 0,117 95,212 212,212 117,0 212,-95 212,-212 0,-105 -76,-192 -176,-209l0 -391 107 0c15,208 158,381 352,438l0 -74c-164,-58 -282,-215 -282,-399 0,-184 118,-341 282,-399zm-353 1034l0 0c0,78 -63,141 -141,141 -78,0 -141,-63 -141,-141 0,-78 63,-141 141,-141 78,0 141,63 141,141z"/>
  <g id="_624484400">
   <path class="fil0" d="M631 1647l22 0 0 81c0,14 -2,25 -6,33 -4,8 -11,15 -21,20 -10,5 -23,8 -39,8 -16,0 -28,-2 -38,-7 -10,-4 -17,-11 -21,-20 -4,-9 -6,-20 -6,-35l0 -81 22 0 0 80c0,12 1,21 4,27 3,6 7,10 14,13 7,3 15,5 24,5 16,0 28,-3 35,-9 7,-6 10,-18 10,-35l0 -80z"/>
   <path class="fil0" d="M690 1786l0 -139 74 0c15,0 26,1 34,4 8,3 14,7 19,13 5,6 7,13 7,21 0,10 -4,18 -12,25 -8,7 -20,11 -36,13 6,2 10,5 13,7 6,5 13,11 18,19l29 38 -28 0 -22 -29c-6,-8 -12,-15 -16,-19 -4,-4 -8,-8 -11,-9 -3,-2 -7,-3 -10,-4 -3,0 -7,-1 -12,-1l-26 0 0 62 -22 0zm22 -78l0 0 48 0c10,0 18,-1 24,-3 6,-2 10,-5 13,-8 3,-4 4,-8 4,-13 0,-7 -3,-12 -9,-16 -6,-4 -15,-6 -27,-6l-53 0 0 46z"/>
   <path class="fil0" d="M840 1786l64 -139 24 0 68 139 -25 0 -20 -42 -70 0 -18 42 -24 0zm48 -57l0 0 57 0 -17 -39c-5,-12 -9,-21 -12,-29 -2,9 -5,18 -9,27l-18 41z"/>
   <polygon class="fil0" points="1014,1786 1014,1647 1037,1647 1125,1756 1125,1647 1146,1647 1146,1786 1123,1786 1035,1677 1035,1786 "/>
   <path class="fil0" d="M1293 1647l22 0 0 81c0,14 -2,25 -6,33 -4,8 -11,15 -21,20 -10,5 -23,8 -39,8 -16,0 -28,-2 -38,-7 -10,-4 -17,-11 -21,-20 -4,-9 -6,-20 -6,-35l0 -81 22 0 0 80c0,12 1,21 4,27 3,6 7,10 14,13 7,3 15,5 24,5 16,0 28,-3 35,-9 7,-6 10,-18 10,-35l0 -80z"/>
   <path class="fil0" d="M1344 1741l21 -2c1,7 3,13 7,17 4,4 9,8 17,11 8,3 16,4 26,4 8,0 16,-1 22,-3 6,-2 11,-5 14,-9 3,-4 5,-8 5,-12 0,-4 -2,-8 -5,-11 -3,-3 -8,-6 -15,-8 -4,-1 -14,-4 -30,-7 -15,-3 -26,-6 -32,-9 -8,-3 -14,-8 -18,-13 -4,-5 -6,-11 -6,-17 0,-7 2,-14 7,-20 5,-6 12,-11 21,-14 9,-3 19,-5 31,-5 12,0 23,2 33,5 9,3 17,8 22,15 5,6 8,14 8,22l-21 1c-1,-9 -5,-15 -12,-20 -7,-5 -16,-7 -29,-7 -13,0 -23,2 -29,6 -6,4 -9,9 -9,15 0,5 2,9 7,12 4,3 15,7 33,10 18,3 30,6 37,9 10,4 17,8 22,14 5,6 7,12 7,20 0,7 -3,14 -8,21 -5,7 -12,12 -22,15 -10,4 -20,5 -32,5 -15,0 -28,-2 -38,-6 -10,-4 -18,-9 -24,-17 -6,-7 -9,-16 -9,-25z"/>
  </g>
 </g>
</svg>
