<?xml version="1.0" encoding="UTF-8"?>
<!DOCTYPE svg PUBLIC "-//W3C//DTD SVG 1.1//EN" "http://www.w3.org/Graphics/SVG/1.1/DTD/svg11.dtd">
<!-- Creator: CorelDRAW X6 -->
<svg xmlns="http://www.w3.org/2000/svg" xml:space="preserve" width="31.1308mm" height="54.78mm" version="1.1" style="shape-rendering:geometricPrecision; text-rendering:geometricPrecision; image-rendering:optimizeQuality; fill-rule:evenodd; clip-rule:evenodd"
viewBox="0 0 837 1472"
 xmlns:xlink="http://www.w3.org/1999/xlink">
 <defs>
  <style type="text/css">
   <![CDATA[
    .str0 {stroke:#000000;stroke-width:18.9648}
    .fil0 {fill:#000000;fill-rule:nonzero}
   ]]>
  </style>
 </defs>
 <g id="fertige_x0020_Planeten">
  <metadata id="CorelCorpID_0Corel-Layer"/>
  <path class="fil0 str0" d="M827 418c0,-226 -183,-409 -409,-409 -226,0 -409,183 -409,409 0,216 168,393 380,408l0 118 -146 0 0 58 146 0 0 117 58 0 0 -117 146 0 0 -58 -146 0 0 -118c212,-15 380,-192 380,-408zm-759 0l0 0c0,-194 157,-351 351,-351 193,0 350,157 350,351 0,194 -157,351 -350,351 -194,0 -351,-157 -351,-351z"/>  
 </g>
</svg>
