<?xml version="1.0" encoding="UTF-8"?>
<!DOCTYPE svg PUBLIC "-//W3C//DTD SVG 1.1//EN" "http://www.w3.org/Graphics/SVG/1.1/DTD/svg11.dtd">
<!-- Creator: CorelDRAW X6 -->
<svg xmlns="http://www.w3.org/2000/svg" xml:space="preserve" width="31.1308mm" height="54.78mm" version="1.1" style="shape-rendering:geometricPrecision; text-rendering:geometricPrecision; image-rendering:optimizeQuality; fill-rule:evenodd; clip-rule:evenodd"
viewBox="0 0 837 1472"
 xmlns:xlink="http://www.w3.org/1999/xlink">
 <defs>
  <style type="text/css">
   <![CDATA[
    .str0 {stroke:#373435;stroke-width:18.9648}
    .fil0 {fill:#373435;fill-rule:nonzero}
   ]]>
  </style>
 </defs>
 <g id="fertige_x0020_Planeten">
  <metadata id="CorelCorpID_0Corel-Layer"/>
  <path class="fil0 str0" d="M827 418c0,-226 -183,-409 -409,-409 -226,0 -409,183 -409,409 0,216 168,393 380,408l0 118 -146 0 0 58 146 0 0 117 58 0 0 -117 146 0 0 -58 -146 0 0 -118c212,-15 380,-192 380,-408zm-759 0l0 0c0,-194 157,-351 351,-351 193,0 350,157 350,351 0,194 -157,351 -350,351 -194,0 -351,-157 -351,-351z"/>
  <g id="_622757408">
   <path class="fil0" d="M140 1470l-54 -115 20 0 36 84c3,7 5,13 7,19 2,-6 5,-13 7,-19l37 -84 19 0 -54 115 -19 0z"/>
   <polygon class="fil0" points="229,1470 229,1355 330,1355 330,1369 248,1369 248,1404 324,1404 324,1417 248,1417 248,1457 333,1457 333,1470 "/>
   <polygon class="fil0" points="358,1470 358,1355 377,1355 449,1446 449,1355 467,1355 467,1470 448,1470 375,1380 375,1470 "/>
   <path class="fil0" d="M589 1355l18 0 0 67c0,12 -2,21 -5,28 -3,7 -9,12 -17,17 -8,4 -19,6 -32,6 -13,0 -24,-2 -32,-6 -8,-4 -14,-9 -18,-16 -4,-7 -5,-17 -5,-29l0 -67 18 0 0 67c0,10 1,17 3,22 2,5 6,8 12,11 5,3 12,4 20,4 13,0 23,-3 29,-8 6,-5 9,-15 9,-29l0 -67z"/>
   <path class="fil0" d="M631 1433l17 -1c1,6 3,11 6,14 3,4 8,7 14,9 6,2 13,3 21,3 7,0 13,-1 19,-3 5,-2 9,-4 12,-7 3,-3 4,-6 4,-10 0,-4 -1,-7 -4,-9 -3,-3 -7,-5 -12,-7 -4,-1 -12,-3 -25,-6 -13,-3 -22,-5 -27,-7 -7,-3 -12,-6 -15,-11 -3,-4 -5,-9 -5,-14 0,-6 2,-11 6,-16 4,-5 10,-9 17,-12 8,-3 16,-4 25,-4 10,0 19,1 27,4 8,3 14,7 18,12 4,5 6,11 7,18l-18 1c-1,-7 -4,-13 -10,-17 -5,-4 -14,-6 -24,-6 -11,0 -19,2 -24,5 -5,3 -8,7 -8,12 0,4 2,8 5,10 4,3 13,5 28,8 15,3 25,5 31,7 8,3 14,7 18,12 4,5 6,10 6,16 0,6 -2,12 -6,17 -4,5 -10,10 -18,13 -8,3 -17,5 -27,5 -13,0 -23,-2 -31,-5 -8,-3 -15,-8 -20,-14 -5,-6 -7,-13 -8,-21z"/>
  </g>
 </g>
</svg>
